<?xml version="1.0" encoding="UTF-8" standalone="no"?>
<!DOCTYPE svg PUBLIC "-//W3C//DTD SVG 1.1//EN"
 "http://www.w3.org/Graphics/SVG/1.1/DTD/svg11.dtd">
<!-- Generated by graphviz version 13.1.0 (20250701.0955)
 -->
<!-- Pages: 1 -->
<svg width="997pt" height="976pt"
 viewBox="0.00 0.00 997.00 976.00" xmlns="http://www.w3.org/2000/svg" xmlns:xlink="http://www.w3.org/1999/xlink">
<g id="graph0" class="graph" transform="scale(1 1) rotate(0) translate(4 971.5)">
<polygon fill="white" stroke="none" points="-4,4 -4,-971.5 993,-971.5 993,4 -4,4"/>
<!-- 1685818093280 -->
<g id="node1" class="node">
<title>1685818093280</title>
<polygon fill="#caff70" stroke="black" points="676,-32.75 618,-32.75 618,0 676,0 676,-32.75"/>
<text xml:space="preserve" text-anchor="middle" x="647" y="-7.25" font-family="monospace" font-size="10.00"> (1, 1)</text>
</g>
<!-- 1685816373408 -->
<g id="node2" class="node">
<title>1685816373408</title>
<polygon fill="lightgrey" stroke="black" points="697,-89.5 597,-89.5 597,-68.75 697,-68.75 697,-89.5"/>
<text xml:space="preserve" text-anchor="middle" x="647" y="-76" font-family="monospace" font-size="10.00">AddmmBackward0</text>
</g>
<!-- 1685816373408&#45;&gt;1685818093280 -->
<g id="edge49" class="edge">
<title>1685816373408&#45;&gt;1685818093280</title>
<path fill="none" stroke="black" d="M647,-68.36C647,-61.89 647,-53.05 647,-44.55"/>
<polygon fill="black" stroke="black" points="650.5,-44.55 647,-34.55 643.5,-44.55 650.5,-44.55"/>
</g>
<!-- 1685816371008 -->
<g id="node3" class="node">
<title>1685816371008</title>
<polygon fill="lightgrey" stroke="black" points="578,-146.25 478,-146.25 478,-125.5 578,-125.5 578,-146.25"/>
<text xml:space="preserve" text-anchor="middle" x="528" y="-132.75" font-family="monospace" font-size="10.00">AccumulateGrad</text>
</g>
<!-- 1685816371008&#45;&gt;1685816373408 -->
<g id="edge1" class="edge">
<title>1685816371008&#45;&gt;1685816373408</title>
<path fill="none" stroke="black" d="M549.27,-125.09C567.72,-116.6 594.66,-104.2 615.59,-94.58"/>
<polygon fill="black" stroke="black" points="616.91,-97.82 624.53,-90.46 613.99,-91.46 616.91,-97.82"/>
</g>
<!-- 1685818048128 -->
<g id="node4" class="node">
<title>1685818048128</title>
<polygon fill="lightblue" stroke="black" points="528,-215.75 404,-215.75 404,-182.25 528,-182.25 528,-215.75"/>
<text xml:space="preserve" text-anchor="middle" x="466" y="-202.25" font-family="monospace" font-size="10.00">affine_output.bias</text>
<text xml:space="preserve" text-anchor="middle" x="466" y="-189.5" font-family="monospace" font-size="10.00"> (1)</text>
</g>
<!-- 1685818048128&#45;&gt;1685816371008 -->
<g id="edge2" class="edge">
<title>1685818048128&#45;&gt;1685816371008</title>
<path fill="none" stroke="black" d="M482.29,-181.94C490.79,-173.56 501.22,-163.28 509.96,-154.66"/>
<polygon fill="black" stroke="black" points="512.28,-157.29 516.94,-147.78 507.36,-152.31 512.28,-157.29"/>
</g>
<!-- 1685816361120 -->
<g id="node5" class="node">
<title>1685816361120</title>
<polygon fill="lightgrey" stroke="black" points="691,-146.25 603,-146.25 603,-125.5 691,-125.5 691,-146.25"/>
<text xml:space="preserve" text-anchor="middle" x="647" y="-132.75" font-family="monospace" font-size="10.00">CatBackward0</text>
</g>
<!-- 1685816361120&#45;&gt;1685816373408 -->
<g id="edge3" class="edge">
<title>1685816361120&#45;&gt;1685816373408</title>
<path fill="none" stroke="black" d="M647,-125.09C647,-118.47 647,-109.47 647,-101.27"/>
<polygon fill="black" stroke="black" points="650.5,-101.34 647,-91.34 643.5,-101.34 650.5,-101.34"/>
</g>
<!-- 1685816365056 -->
<g id="node6" class="node">
<title>1685816365056</title>
<polygon fill="lightgrey" stroke="black" points="640,-209.38 546,-209.38 546,-188.62 640,-188.62 640,-209.38"/>
<text xml:space="preserve" text-anchor="middle" x="593" y="-195.88" font-family="monospace" font-size="10.00">ReluBackward0</text>
</g>
<!-- 1685816365056&#45;&gt;1685816361120 -->
<g id="edge4" class="edge">
<title>1685816365056&#45;&gt;1685816361120</title>
<path fill="none" stroke="black" d="M601.68,-188.18C609.6,-179.22 621.5,-165.74 631.12,-154.85"/>
<polygon fill="black" stroke="black" points="633.52,-157.42 637.52,-147.6 628.28,-152.78 633.52,-157.42"/>
</g>
<!-- 1685816369088 -->
<g id="node7" class="node">
<title>1685816369088</title>
<polygon fill="lightgrey" stroke="black" points="467,-278.88 367,-278.88 367,-258.12 467,-258.12 467,-278.88"/>
<text xml:space="preserve" text-anchor="middle" x="417" y="-265.38" font-family="monospace" font-size="10.00">AddmmBackward0</text>
</g>
<!-- 1685816369088&#45;&gt;1685816365056 -->
<g id="edge5" class="edge">
<title>1685816369088&#45;&gt;1685816365056</title>
<path fill="none" stroke="black" d="M442.59,-257.68C472.7,-246.14 522.89,-226.89 556.94,-213.83"/>
<polygon fill="black" stroke="black" points="557.88,-217.22 565.96,-210.37 555.37,-210.68 557.88,-217.22"/>
</g>
<!-- 1685816366976 -->
<g id="node8" class="node">
<title>1685816366976</title>
<polygon fill="lightgrey" stroke="black" points="295,-342 195,-342 195,-321.25 295,-321.25 295,-342"/>
<text xml:space="preserve" text-anchor="middle" x="245" y="-328.5" font-family="monospace" font-size="10.00">AccumulateGrad</text>
</g>
<!-- 1685816366976&#45;&gt;1685816369088 -->
<g id="edge6" class="edge">
<title>1685816366976&#45;&gt;1685816369088</title>
<path fill="none" stroke="black" d="M272.63,-320.8C301.35,-310.6 346.49,-294.56 378.65,-283.13"/>
<polygon fill="black" stroke="black" points="379.76,-286.45 388.01,-279.8 377.41,-279.85 379.76,-286.45"/>
</g>
<!-- 1685818048048 -->
<g id="node9" class="node">
<title>1685818048048</title>
<polygon fill="lightblue" stroke="black" points="297,-411.5 185,-411.5 185,-378 297,-378 297,-411.5"/>
<text xml:space="preserve" text-anchor="middle" x="241" y="-398" font-family="monospace" font-size="10.00">fc_layers.3.bias</text>
<text xml:space="preserve" text-anchor="middle" x="241" y="-385.25" font-family="monospace" font-size="10.00"> (8)</text>
</g>
<!-- 1685818048048&#45;&gt;1685816366976 -->
<g id="edge7" class="edge">
<title>1685818048048&#45;&gt;1685816366976</title>
<path fill="none" stroke="black" d="M242.05,-377.69C242.53,-370.35 243.11,-361.57 243.62,-353.71"/>
<polygon fill="black" stroke="black" points="247.1,-354.18 244.26,-343.98 240.11,-353.73 247.1,-354.18"/>
</g>
<!-- 1685816369472 -->
<g id="node10" class="node">
<title>1685816369472</title>
<polygon fill="lightgrey" stroke="black" points="416,-342 322,-342 322,-321.25 416,-321.25 416,-342"/>
<text xml:space="preserve" text-anchor="middle" x="369" y="-328.5" font-family="monospace" font-size="10.00">ReluBackward0</text>
</g>
<!-- 1685816369472&#45;&gt;1685816369088 -->
<g id="edge8" class="edge">
<title>1685816369472&#45;&gt;1685816369088</title>
<path fill="none" stroke="black" d="M376.71,-320.8C383.61,-312.02 393.91,-298.91 402.37,-288.14"/>
<polygon fill="black" stroke="black" points="405.11,-290.31 408.53,-280.29 399.6,-285.99 405.11,-290.31"/>
</g>
<!-- 1685816375808 -->
<g id="node11" class="node">
<title>1685816375808</title>
<polygon fill="lightgrey" stroke="black" points="415,-405.12 315,-405.12 315,-384.38 415,-384.38 415,-405.12"/>
<text xml:space="preserve" text-anchor="middle" x="365" y="-391.62" font-family="monospace" font-size="10.00">AddmmBackward0</text>
</g>
<!-- 1685816375808&#45;&gt;1685816369472 -->
<g id="edge9" class="edge">
<title>1685816375808&#45;&gt;1685816369472</title>
<path fill="none" stroke="black" d="M365.64,-383.93C366.18,-375.77 366.95,-363.88 367.63,-353.6"/>
<polygon fill="black" stroke="black" points="371.11,-353.94 368.27,-343.73 364.13,-353.48 371.11,-353.94"/>
</g>
<!-- 1685816372736 -->
<g id="node12" class="node">
<title>1685816372736</title>
<polygon fill="lightgrey" stroke="black" points="245,-474.62 145,-474.62 145,-453.88 245,-453.88 245,-474.62"/>
<text xml:space="preserve" text-anchor="middle" x="195" y="-461.12" font-family="monospace" font-size="10.00">AccumulateGrad</text>
</g>
<!-- 1685816372736&#45;&gt;1685816375808 -->
<g id="edge10" class="edge">
<title>1685816372736&#45;&gt;1685816375808</title>
<path fill="none" stroke="black" d="M219.72,-453.43C248.68,-441.94 296.86,-422.8 329.74,-409.75"/>
<polygon fill="black" stroke="black" points="330.84,-413.08 338.84,-406.14 328.26,-406.57 330.84,-413.08"/>
</g>
<!-- 1685818047568 -->
<g id="node13" class="node">
<title>1685818047568</title>
<polygon fill="lightblue" stroke="black" points="246,-550.5 134,-550.5 134,-517 246,-517 246,-550.5"/>
<text xml:space="preserve" text-anchor="middle" x="190" y="-537" font-family="monospace" font-size="10.00">fc_layers.2.bias</text>
<text xml:space="preserve" text-anchor="middle" x="190" y="-524.25" font-family="monospace" font-size="10.00"> (16)</text>
</g>
<!-- 1685818047568&#45;&gt;1685816372736 -->
<g id="edge11" class="edge">
<title>1685818047568&#45;&gt;1685816372736</title>
<path fill="none" stroke="black" d="M191.18,-516.75C191.86,-507.65 192.71,-496.14 193.44,-486.32"/>
<polygon fill="black" stroke="black" points="196.91,-486.81 194.16,-476.58 189.93,-486.3 196.91,-486.81"/>
</g>
<!-- 1685816373696 -->
<g id="node14" class="node">
<title>1685816373696</title>
<polygon fill="lightgrey" stroke="black" points="361,-474.62 267,-474.62 267,-453.88 361,-453.88 361,-474.62"/>
<text xml:space="preserve" text-anchor="middle" x="314" y="-461.12" font-family="monospace" font-size="10.00">ReluBackward0</text>
</g>
<!-- 1685816373696&#45;&gt;1685816375808 -->
<g id="edge12" class="edge">
<title>1685816373696&#45;&gt;1685816375808</title>
<path fill="none" stroke="black" d="M321.31,-453.58C329.03,-443.35 341.41,-426.98 351.02,-414.25"/>
<polygon fill="black" stroke="black" points="353.56,-416.7 356.79,-406.61 347.97,-412.48 353.56,-416.7"/>
</g>
<!-- 1685816370528 -->
<g id="node15" class="node">
<title>1685816370528</title>
<polygon fill="lightgrey" stroke="black" points="364,-544.12 264,-544.12 264,-523.38 364,-523.38 364,-544.12"/>
<text xml:space="preserve" text-anchor="middle" x="314" y="-530.62" font-family="monospace" font-size="10.00">AddmmBackward0</text>
</g>
<!-- 1685816370528&#45;&gt;1685816373696 -->
<g id="edge13" class="edge">
<title>1685816370528&#45;&gt;1685816373696</title>
<path fill="none" stroke="black" d="M314,-523.08C314,-513.46 314,-498.38 314,-486.04"/>
<polygon fill="black" stroke="black" points="317.5,-486.42 314,-476.42 310.5,-486.42 317.5,-486.42"/>
</g>
<!-- 1685816368320 -->
<g id="node16" class="node">
<title>1685816368320</title>
<polygon fill="lightgrey" stroke="black" points="219,-613.62 119,-613.62 119,-592.88 219,-592.88 219,-613.62"/>
<text xml:space="preserve" text-anchor="middle" x="169" y="-600.12" font-family="monospace" font-size="10.00">AccumulateGrad</text>
</g>
<!-- 1685816368320&#45;&gt;1685816370528 -->
<g id="edge14" class="edge">
<title>1685816368320&#45;&gt;1685816370528</title>
<path fill="none" stroke="black" d="M190.08,-592.43C214.46,-581.09 254.82,-562.3 282.82,-549.26"/>
<polygon fill="black" stroke="black" points="283.93,-552.61 291.52,-545.22 280.98,-546.26 283.93,-552.61"/>
</g>
<!-- 1685818044048 -->
<g id="node17" class="node">
<title>1685818044048</title>
<polygon fill="lightblue" stroke="black" points="220,-689.5 108,-689.5 108,-656 220,-656 220,-689.5"/>
<text xml:space="preserve" text-anchor="middle" x="164" y="-676" font-family="monospace" font-size="10.00">fc_layers.1.bias</text>
<text xml:space="preserve" text-anchor="middle" x="164" y="-663.25" font-family="monospace" font-size="10.00"> (32)</text>
</g>
<!-- 1685818044048&#45;&gt;1685816368320 -->
<g id="edge15" class="edge">
<title>1685818044048&#45;&gt;1685816368320</title>
<path fill="none" stroke="black" d="M165.18,-655.75C165.86,-646.65 166.71,-635.14 167.44,-625.32"/>
<polygon fill="black" stroke="black" points="170.91,-625.81 168.16,-615.58 163.93,-625.3 170.91,-625.81"/>
</g>
<!-- 1685816361600 -->
<g id="node18" class="node">
<title>1685816361600</title>
<polygon fill="lightgrey" stroke="black" points="335,-613.62 241,-613.62 241,-592.88 335,-592.88 335,-613.62"/>
<text xml:space="preserve" text-anchor="middle" x="288" y="-600.12" font-family="monospace" font-size="10.00">ReluBackward0</text>
</g>
<!-- 1685816361600&#45;&gt;1685816370528 -->
<g id="edge16" class="edge">
<title>1685816361600&#45;&gt;1685816370528</title>
<path fill="none" stroke="black" d="M291.73,-592.58C295.51,-582.75 301.48,-567.25 306.29,-554.77"/>
<polygon fill="black" stroke="black" points="309.41,-556.41 309.74,-545.82 302.88,-553.89 309.41,-556.41"/>
</g>
<!-- 1685816368992 -->
<g id="node19" class="node">
<title>1685816368992</title>
<polygon fill="lightgrey" stroke="black" points="338,-683.12 238,-683.12 238,-662.38 338,-662.38 338,-683.12"/>
<text xml:space="preserve" text-anchor="middle" x="288" y="-669.62" font-family="monospace" font-size="10.00">AddmmBackward0</text>
</g>
<!-- 1685816368992&#45;&gt;1685816361600 -->
<g id="edge17" class="edge">
<title>1685816368992&#45;&gt;1685816361600</title>
<path fill="none" stroke="black" d="M288,-662.08C288,-652.46 288,-637.38 288,-625.04"/>
<polygon fill="black" stroke="black" points="291.5,-625.42 288,-615.42 284.5,-625.42 291.5,-625.42"/>
</g>
<!-- 1685816369952 -->
<g id="node20" class="node">
<title>1685816369952</title>
<polygon fill="lightgrey" stroke="black" points="118,-752.62 18,-752.62 18,-731.88 118,-731.88 118,-752.62"/>
<text xml:space="preserve" text-anchor="middle" x="68" y="-739.12" font-family="monospace" font-size="10.00">AccumulateGrad</text>
</g>
<!-- 1685816369952&#45;&gt;1685816368992 -->
<g id="edge18" class="edge">
<title>1685816369952&#45;&gt;1685816368992</title>
<path fill="none" stroke="black" d="M99.99,-731.43C138.28,-719.69 202.55,-699.97 245.11,-686.91"/>
<polygon fill="black" stroke="black" points="245.99,-690.3 254.52,-684.02 243.94,-683.61 245.99,-690.3"/>
</g>
<!-- 1685818047008 -->
<g id="node21" class="node">
<title>1685818047008</title>
<polygon fill="lightblue" stroke="black" points="112,-828.5 0,-828.5 0,-795 112,-795 112,-828.5"/>
<text xml:space="preserve" text-anchor="middle" x="56" y="-815" font-family="monospace" font-size="10.00">fc_layers.0.bias</text>
<text xml:space="preserve" text-anchor="middle" x="56" y="-802.25" font-family="monospace" font-size="10.00"> (64)</text>
</g>
<!-- 1685818047008&#45;&gt;1685816369952 -->
<g id="edge19" class="edge">
<title>1685818047008&#45;&gt;1685816369952</title>
<path fill="none" stroke="black" d="M58.84,-794.75C60.46,-785.65 62.51,-774.14 64.25,-764.32"/>
<polygon fill="black" stroke="black" points="67.68,-765.02 65.99,-754.56 60.79,-763.8 67.68,-765.02"/>
</g>
<!-- 1685816369760 -->
<g id="node22" class="node">
<title>1685816369760</title>
<polygon fill="lightgrey" stroke="black" points="307,-752.62 219,-752.62 219,-731.88 307,-731.88 307,-752.62"/>
<text xml:space="preserve" text-anchor="middle" x="263" y="-739.12" font-family="monospace" font-size="10.00">CatBackward0</text>
</g>
<!-- 1685816369760&#45;&gt;1685816368992 -->
<g id="edge20" class="edge">
<title>1685816369760&#45;&gt;1685816368992</title>
<path fill="none" stroke="black" d="M266.58,-731.58C270.18,-721.85 275.85,-706.57 280.44,-694.15"/>
<polygon fill="black" stroke="black" points="283.71,-695.42 283.9,-684.82 277.14,-692.98 283.71,-695.42"/>
</g>
<!-- 1685816368416 -->
<g id="node23" class="node">
<title>1685816368416</title>
<polygon fill="lightgrey" stroke="black" points="254,-822.12 130,-822.12 130,-801.38 254,-801.38 254,-822.12"/>
<text xml:space="preserve" text-anchor="middle" x="192" y="-808.62" font-family="monospace" font-size="10.00">EmbeddingBackward0</text>
</g>
<!-- 1685816368416&#45;&gt;1685816369760 -->
<g id="edge21" class="edge">
<title>1685816368416&#45;&gt;1685816369760</title>
<path fill="none" stroke="black" d="M202.17,-801.08C213.24,-790.55 231.17,-773.51 244.71,-760.64"/>
<polygon fill="black" stroke="black" points="246.91,-763.37 251.75,-753.95 242.09,-758.3 246.91,-763.37"/>
</g>
<!-- 1685816367456 -->
<g id="node24" class="node">
<title>1685816367456</title>
<polygon fill="lightgrey" stroke="black" points="232,-891.62 132,-891.62 132,-870.88 232,-870.88 232,-891.62"/>
<text xml:space="preserve" text-anchor="middle" x="182" y="-878.12" font-family="monospace" font-size="10.00">AccumulateGrad</text>
</g>
<!-- 1685816367456&#45;&gt;1685816368416 -->
<g id="edge22" class="edge">
<title>1685816367456&#45;&gt;1685816368416</title>
<path fill="none" stroke="black" d="M183.43,-870.58C184.86,-860.96 187.09,-845.88 188.92,-833.54"/>
<polygon fill="black" stroke="black" points="192.34,-834.31 190.35,-823.9 185.42,-833.28 192.34,-834.31"/>
</g>
<!-- 1685818047728 -->
<g id="node25" class="node">
<title>1685818047728</title>
<polygon fill="lightblue" stroke="black" points="244,-967.5 78,-967.5 78,-934 244,-934 244,-967.5"/>
<text xml:space="preserve" text-anchor="middle" x="161" y="-954" font-family="monospace" font-size="10.00">embedding_user_mlp.weight</text>
<text xml:space="preserve" text-anchor="middle" x="161" y="-941.25" font-family="monospace" font-size="10.00"> (100, 64)</text>
</g>
<!-- 1685818047728&#45;&gt;1685816367456 -->
<g id="edge23" class="edge">
<title>1685818047728&#45;&gt;1685816367456</title>
<path fill="none" stroke="black" d="M165.98,-933.75C168.84,-924.55 172.47,-912.89 175.55,-902.99"/>
<polygon fill="black" stroke="black" points="178.87,-904.11 178.49,-893.52 172.18,-902.03 178.87,-904.11"/>
</g>
<!-- 1685816369568 -->
<g id="node26" class="node">
<title>1685816369568</title>
<polygon fill="lightgrey" stroke="black" points="396,-822.12 272,-822.12 272,-801.38 396,-801.38 396,-822.12"/>
<text xml:space="preserve" text-anchor="middle" x="334" y="-808.62" font-family="monospace" font-size="10.00">EmbeddingBackward0</text>
</g>
<!-- 1685816369568&#45;&gt;1685816369760 -->
<g id="edge24" class="edge">
<title>1685816369568&#45;&gt;1685816369760</title>
<path fill="none" stroke="black" d="M323.83,-801.08C312.76,-790.55 294.83,-773.51 281.29,-760.64"/>
<polygon fill="black" stroke="black" points="283.91,-758.3 274.25,-753.95 279.09,-763.37 283.91,-758.3"/>
</g>
<!-- 1685816367264 -->
<g id="node27" class="node">
<title>1685816367264</title>
<polygon fill="lightgrey" stroke="black" points="384,-891.62 284,-891.62 284,-870.88 384,-870.88 384,-891.62"/>
<text xml:space="preserve" text-anchor="middle" x="334" y="-878.12" font-family="monospace" font-size="10.00">AccumulateGrad</text>
</g>
<!-- 1685816367264&#45;&gt;1685816369568 -->
<g id="edge25" class="edge">
<title>1685816367264&#45;&gt;1685816369568</title>
<path fill="none" stroke="black" d="M334,-870.58C334,-860.96 334,-845.88 334,-833.54"/>
<polygon fill="black" stroke="black" points="337.5,-833.92 334,-823.92 330.5,-833.92 337.5,-833.92"/>
</g>
<!-- 1685818047648 -->
<g id="node28" class="node">
<title>1685818047648</title>
<polygon fill="lightblue" stroke="black" points="428,-967.5 262,-967.5 262,-934 428,-934 428,-967.5"/>
<text xml:space="preserve" text-anchor="middle" x="345" y="-954" font-family="monospace" font-size="10.00">embedding_item_mlp.weight</text>
<text xml:space="preserve" text-anchor="middle" x="345" y="-941.25" font-family="monospace" font-size="10.00"> (200, 64)</text>
</g>
<!-- 1685818047648&#45;&gt;1685816367264 -->
<g id="edge26" class="edge">
<title>1685818047648&#45;&gt;1685816367264</title>
<path fill="none" stroke="black" d="M342.39,-933.75C340.91,-924.65 339.03,-913.14 337.43,-903.32"/>
<polygon fill="black" stroke="black" points="340.91,-902.87 335.84,-893.57 334,-904 340.91,-902.87"/>
</g>
<!-- 1685816369184 -->
<g id="node29" class="node">
<title>1685816369184</title>
<polygon fill="lightgrey" stroke="black" points="401,-752.62 325,-752.62 325,-731.88 401,-731.88 401,-752.62"/>
<text xml:space="preserve" text-anchor="middle" x="363" y="-739.12" font-family="monospace" font-size="10.00">TBackward0</text>
</g>
<!-- 1685816369184&#45;&gt;1685816368992 -->
<g id="edge27" class="edge">
<title>1685816369184&#45;&gt;1685816368992</title>
<path fill="none" stroke="black" d="M352.25,-731.58C340.45,-720.95 321.26,-703.68 306.92,-690.78"/>
<polygon fill="black" stroke="black" points="309.63,-688.5 299.85,-684.42 304.94,-693.71 309.63,-688.5"/>
</g>
<!-- 1685816367648 -->
<g id="node30" class="node">
<title>1685816367648</title>
<polygon fill="lightgrey" stroke="black" points="514,-822.12 414,-822.12 414,-801.38 514,-801.38 514,-822.12"/>
<text xml:space="preserve" text-anchor="middle" x="464" y="-808.62" font-family="monospace" font-size="10.00">AccumulateGrad</text>
</g>
<!-- 1685816367648&#45;&gt;1685816369184 -->
<g id="edge28" class="edge">
<title>1685816367648&#45;&gt;1685816369184</title>
<path fill="none" stroke="black" d="M449.53,-801.08C433.27,-790.21 406.62,-772.4 387.18,-759.41"/>
<polygon fill="black" stroke="black" points="389.29,-756.61 379.03,-753.96 385.4,-762.43 389.29,-756.61"/>
</g>
<!-- 1685818047088 -->
<g id="node31" class="node">
<title>1685818047088</title>
<polygon fill="lightblue" stroke="black" points="526,-898 402,-898 402,-864.5 526,-864.5 526,-898"/>
<text xml:space="preserve" text-anchor="middle" x="464" y="-884.5" font-family="monospace" font-size="10.00">fc_layers.0.weight</text>
<text xml:space="preserve" text-anchor="middle" x="464" y="-871.75" font-family="monospace" font-size="10.00"> (64, 128)</text>
</g>
<!-- 1685818047088&#45;&gt;1685816367648 -->
<g id="edge29" class="edge">
<title>1685818047088&#45;&gt;1685816367648</title>
<path fill="none" stroke="black" d="M464,-864.25C464,-855.15 464,-843.64 464,-833.82"/>
<polygon fill="black" stroke="black" points="467.5,-834.09 464,-824.09 460.5,-834.09 467.5,-834.09"/>
</g>
<!-- 1685816370720 -->
<g id="node32" class="node">
<title>1685816370720</title>
<polygon fill="lightgrey" stroke="black" points="429,-613.62 353,-613.62 353,-592.88 429,-592.88 429,-613.62"/>
<text xml:space="preserve" text-anchor="middle" x="391" y="-600.12" font-family="monospace" font-size="10.00">TBackward0</text>
</g>
<!-- 1685816370720&#45;&gt;1685816370528 -->
<g id="edge30" class="edge">
<title>1685816370720&#45;&gt;1685816370528</title>
<path fill="none" stroke="black" d="M379.97,-592.58C367.91,-582.01 348.37,-564.88 333.67,-552"/>
<polygon fill="black" stroke="black" points="336.23,-549.58 326.4,-545.62 331.61,-554.84 336.23,-549.58"/>
</g>
<!-- 1685816372064 -->
<g id="node33" class="node">
<title>1685816372064</title>
<polygon fill="lightgrey" stroke="black" points="506,-683.12 406,-683.12 406,-662.38 506,-662.38 506,-683.12"/>
<text xml:space="preserve" text-anchor="middle" x="456" y="-669.62" font-family="monospace" font-size="10.00">AccumulateGrad</text>
</g>
<!-- 1685816372064&#45;&gt;1685816370720 -->
<g id="edge31" class="edge">
<title>1685816372064&#45;&gt;1685816370720</title>
<path fill="none" stroke="black" d="M446.69,-662.08C436.65,-651.65 420.45,-634.83 408.1,-622.01"/>
<polygon fill="black" stroke="black" points="410.8,-619.77 401.35,-614.99 405.76,-624.62 410.8,-619.77"/>
</g>
<!-- 1685818046928 -->
<g id="node34" class="node">
<title>1685818046928</title>
<polygon fill="lightblue" stroke="black" points="543,-759 419,-759 419,-725.5 543,-725.5 543,-759"/>
<text xml:space="preserve" text-anchor="middle" x="481" y="-745.5" font-family="monospace" font-size="10.00">fc_layers.1.weight</text>
<text xml:space="preserve" text-anchor="middle" x="481" y="-732.75" font-family="monospace" font-size="10.00"> (32, 64)</text>
</g>
<!-- 1685818046928&#45;&gt;1685816372064 -->
<g id="edge32" class="edge">
<title>1685818046928&#45;&gt;1685816372064</title>
<path fill="none" stroke="black" d="M475.08,-725.25C471.63,-715.95 467.25,-704.13 463.56,-694.16"/>
<polygon fill="black" stroke="black" points="466.92,-693.15 460.16,-684.99 460.35,-695.58 466.92,-693.15"/>
</g>
<!-- 1685816374176 -->
<g id="node35" class="node">
<title>1685816374176</title>
<polygon fill="lightgrey" stroke="black" points="455,-474.62 379,-474.62 379,-453.88 455,-453.88 455,-474.62"/>
<text xml:space="preserve" text-anchor="middle" x="417" y="-461.12" font-family="monospace" font-size="10.00">TBackward0</text>
</g>
<!-- 1685816374176&#45;&gt;1685816375808 -->
<g id="edge33" class="edge">
<title>1685816374176&#45;&gt;1685816375808</title>
<path fill="none" stroke="black" d="M409.55,-453.58C401.67,-443.35 389.06,-426.98 379.26,-414.25"/>
<polygon fill="black" stroke="black" points="382.24,-412.39 373.36,-406.6 376.69,-416.66 382.24,-412.39"/>
</g>
<!-- 1685816368800 -->
<g id="node36" class="node">
<title>1685816368800</title>
<polygon fill="lightgrey" stroke="black" points="533,-544.12 433,-544.12 433,-523.38 533,-523.38 533,-544.12"/>
<text xml:space="preserve" text-anchor="middle" x="483" y="-530.62" font-family="monospace" font-size="10.00">AccumulateGrad</text>
</g>
<!-- 1685816368800&#45;&gt;1685816374176 -->
<g id="edge34" class="edge">
<title>1685816368800&#45;&gt;1685816374176</title>
<path fill="none" stroke="black" d="M473.54,-523.08C463.35,-512.65 446.9,-495.83 434.37,-483.01"/>
<polygon fill="black" stroke="black" points="436.99,-480.69 427.5,-475.99 431.99,-485.58 436.99,-480.69"/>
</g>
<!-- 1685818047968 -->
<g id="node37" class="node">
<title>1685818047968</title>
<polygon fill="lightblue" stroke="black" points="571,-620 447,-620 447,-586.5 571,-586.5 571,-620"/>
<text xml:space="preserve" text-anchor="middle" x="509" y="-606.5" font-family="monospace" font-size="10.00">fc_layers.2.weight</text>
<text xml:space="preserve" text-anchor="middle" x="509" y="-593.75" font-family="monospace" font-size="10.00"> (16, 32)</text>
</g>
<!-- 1685818047968&#45;&gt;1685816368800 -->
<g id="edge35" class="edge">
<title>1685818047968&#45;&gt;1685816368800</title>
<path fill="none" stroke="black" d="M502.84,-586.25C499.26,-576.95 494.7,-565.13 490.86,-555.16"/>
<polygon fill="black" stroke="black" points="494.19,-554.06 487.33,-545.98 487.66,-556.57 494.19,-554.06"/>
</g>
<!-- 1685816363136 -->
<g id="node38" class="node">
<title>1685816363136</title>
<polygon fill="lightgrey" stroke="black" points="514,-342 438,-342 438,-321.25 514,-321.25 514,-342"/>
<text xml:space="preserve" text-anchor="middle" x="476" y="-328.5" font-family="monospace" font-size="10.00">TBackward0</text>
</g>
<!-- 1685816363136&#45;&gt;1685816369088 -->
<g id="edge36" class="edge">
<title>1685816363136&#45;&gt;1685816369088</title>
<path fill="none" stroke="black" d="M466.52,-320.8C457.78,-311.75 444.6,-298.1 434.04,-287.15"/>
<polygon fill="black" stroke="black" points="436.78,-284.95 427.31,-280.18 431.74,-289.81 436.78,-284.95"/>
</g>
<!-- 1685816371680 -->
<g id="node39" class="node">
<title>1685816371680</title>
<polygon fill="lightgrey" stroke="black" points="533,-405.12 433,-405.12 433,-384.38 533,-384.38 533,-405.12"/>
<text xml:space="preserve" text-anchor="middle" x="483" y="-391.62" font-family="monospace" font-size="10.00">AccumulateGrad</text>
</g>
<!-- 1685816371680&#45;&gt;1685816363136 -->
<g id="edge37" class="edge">
<title>1685816371680&#45;&gt;1685816363136</title>
<path fill="none" stroke="black" d="M481.88,-383.93C480.94,-375.77 479.58,-363.88 478.4,-353.6"/>
<polygon fill="black" stroke="black" points="481.89,-353.26 477.27,-343.72 474.93,-354.06 481.89,-353.26"/>
</g>
<!-- 1685818047488 -->
<g id="node40" class="node">
<title>1685818047488</title>
<polygon fill="lightblue" stroke="black" points="597,-481 473,-481 473,-447.5 597,-447.5 597,-481"/>
<text xml:space="preserve" text-anchor="middle" x="535" y="-467.5" font-family="monospace" font-size="10.00">fc_layers.3.weight</text>
<text xml:space="preserve" text-anchor="middle" x="535" y="-454.75" font-family="monospace" font-size="10.00"> (8, 16)</text>
</g>
<!-- 1685818047488&#45;&gt;1685816371680 -->
<g id="edge38" class="edge">
<title>1685818047488&#45;&gt;1685816371680</title>
<path fill="none" stroke="black" d="M522.68,-447.25C515.12,-437.44 505.41,-424.84 497.49,-414.55"/>
<polygon fill="black" stroke="black" points="500.37,-412.56 491.49,-406.77 494.82,-416.83 500.37,-412.56"/>
</g>
<!-- 1685816373984 -->
<g id="node41" class="node">
<title>1685816373984</title>
<polygon fill="lightgrey" stroke="black" points="746,-209.38 658,-209.38 658,-188.62 746,-188.62 746,-209.38"/>
<text xml:space="preserve" text-anchor="middle" x="702" y="-195.88" font-family="monospace" font-size="10.00">MulBackward0</text>
</g>
<!-- 1685816373984&#45;&gt;1685816361120 -->
<g id="edge39" class="edge">
<title>1685816373984&#45;&gt;1685816361120</title>
<path fill="none" stroke="black" d="M693.16,-188.18C685.1,-179.22 672.98,-165.74 663.18,-154.85"/>
<polygon fill="black" stroke="black" points="665.94,-152.69 656.65,-147.6 660.73,-157.37 665.94,-152.69"/>
</g>
<!-- 1685816368608 -->
<g id="node42" class="node">
<title>1685816368608</title>
<polygon fill="lightgrey" stroke="black" points="693,-278.88 569,-278.88 569,-258.12 693,-258.12 693,-278.88"/>
<text xml:space="preserve" text-anchor="middle" x="631" y="-265.38" font-family="monospace" font-size="10.00">EmbeddingBackward0</text>
</g>
<!-- 1685816368608&#45;&gt;1685816373984 -->
<g id="edge40" class="edge">
<title>1685816368608&#45;&gt;1685816373984</title>
<path fill="none" stroke="black" d="M641.17,-257.83C652.24,-247.3 670.17,-230.26 683.71,-217.39"/>
<polygon fill="black" stroke="black" points="685.91,-220.12 690.75,-210.7 681.09,-215.05 685.91,-220.12"/>
</g>
<!-- 1685816362560 -->
<g id="node43" class="node">
<title>1685816362560</title>
<polygon fill="lightgrey" stroke="black" points="681,-342 581,-342 581,-321.25 681,-321.25 681,-342"/>
<text xml:space="preserve" text-anchor="middle" x="631" y="-328.5" font-family="monospace" font-size="10.00">AccumulateGrad</text>
</g>
<!-- 1685816362560&#45;&gt;1685816368608 -->
<g id="edge41" class="edge">
<title>1685816362560&#45;&gt;1685816368608</title>
<path fill="none" stroke="black" d="M631,-320.8C631,-312.65 631,-300.76 631,-290.48"/>
<polygon fill="black" stroke="black" points="634.5,-290.61 631,-280.61 627.5,-290.61 634.5,-290.61"/>
</g>
<!-- 1685818047408 -->
<g id="node44" class="node">
<title>1685818047408</title>
<polygon fill="lightblue" stroke="black" points="711,-411.5 551,-411.5 551,-378 711,-378 711,-411.5"/>
<text xml:space="preserve" text-anchor="middle" x="631" y="-398" font-family="monospace" font-size="10.00">embedding_user_mf.weight</text>
<text xml:space="preserve" text-anchor="middle" x="631" y="-385.25" font-family="monospace" font-size="10.00"> (100, 64)</text>
</g>
<!-- 1685818047408&#45;&gt;1685816362560 -->
<g id="edge42" class="edge">
<title>1685818047408&#45;&gt;1685816362560</title>
<path fill="none" stroke="black" d="M631,-377.69C631,-370.35 631,-361.57 631,-353.71"/>
<polygon fill="black" stroke="black" points="634.5,-353.98 631,-343.98 627.5,-353.98 634.5,-353.98"/>
</g>
<!-- 1685816374848 -->
<g id="node45" class="node">
<title>1685816374848</title>
<polygon fill="lightgrey" stroke="black" points="835,-278.88 711,-278.88 711,-258.12 835,-258.12 835,-278.88"/>
<text xml:space="preserve" text-anchor="middle" x="773" y="-265.38" font-family="monospace" font-size="10.00">EmbeddingBackward0</text>
</g>
<!-- 1685816374848&#45;&gt;1685816373984 -->
<g id="edge43" class="edge">
<title>1685816374848&#45;&gt;1685816373984</title>
<path fill="none" stroke="black" d="M762.83,-257.83C751.76,-247.3 733.83,-230.26 720.29,-217.39"/>
<polygon fill="black" stroke="black" points="722.91,-215.05 713.25,-210.7 718.09,-220.12 722.91,-215.05"/>
</g>
<!-- 1685816368032 -->
<g id="node46" class="node">
<title>1685816368032</title>
<polygon fill="lightgrey" stroke="black" points="841,-342 741,-342 741,-321.25 841,-321.25 841,-342"/>
<text xml:space="preserve" text-anchor="middle" x="791" y="-328.5" font-family="monospace" font-size="10.00">AccumulateGrad</text>
</g>
<!-- 1685816368032&#45;&gt;1685816374848 -->
<g id="edge44" class="edge">
<title>1685816368032&#45;&gt;1685816374848</title>
<path fill="none" stroke="black" d="M788.11,-320.8C785.68,-312.56 782.13,-300.5 779.08,-290.14"/>
<polygon fill="black" stroke="black" points="782.44,-289.15 776.25,-280.55 775.72,-291.13 782.44,-289.15"/>
</g>
<!-- 1685818047808 -->
<g id="node47" class="node">
<title>1685818047808</title>
<polygon fill="lightblue" stroke="black" points="889,-411.5 729,-411.5 729,-378 889,-378 889,-411.5"/>
<text xml:space="preserve" text-anchor="middle" x="809" y="-398" font-family="monospace" font-size="10.00">embedding_item_mf.weight</text>
<text xml:space="preserve" text-anchor="middle" x="809" y="-385.25" font-family="monospace" font-size="10.00"> (200, 64)</text>
</g>
<!-- 1685818047808&#45;&gt;1685816368032 -->
<g id="edge45" class="edge">
<title>1685818047808&#45;&gt;1685816368032</title>
<path fill="none" stroke="black" d="M804.27,-377.69C802.08,-370.27 799.46,-361.36 797.13,-353.43"/>
<polygon fill="black" stroke="black" points="800.51,-352.52 794.33,-343.92 793.79,-354.5 800.51,-352.52"/>
</g>
<!-- 1685816363520 -->
<g id="node48" class="node">
<title>1685816363520</title>
<polygon fill="lightgrey" stroke="black" points="827,-146.25 751,-146.25 751,-125.5 827,-125.5 827,-146.25"/>
<text xml:space="preserve" text-anchor="middle" x="789" y="-132.75" font-family="monospace" font-size="10.00">TBackward0</text>
</g>
<!-- 1685816363520&#45;&gt;1685816373408 -->
<g id="edge46" class="edge">
<title>1685816363520&#45;&gt;1685816373408</title>
<path fill="none" stroke="black" d="M763.61,-125.09C741.1,-116.41 707.97,-103.63 682.77,-93.92"/>
<polygon fill="black" stroke="black" points="684.17,-90.7 673.58,-90.37 681.65,-97.24 684.17,-90.7"/>
</g>
<!-- 1685816367840 -->
<g id="node49" class="node">
<title>1685816367840</title>
<polygon fill="lightgrey" stroke="black" points="882,-209.38 782,-209.38 782,-188.62 882,-188.62 882,-209.38"/>
<text xml:space="preserve" text-anchor="middle" x="832" y="-195.88" font-family="monospace" font-size="10.00">AccumulateGrad</text>
</g>
<!-- 1685816367840&#45;&gt;1685816363520 -->
<g id="edge47" class="edge">
<title>1685816367840&#45;&gt;1685816363520</title>
<path fill="none" stroke="black" d="M825.09,-188.18C818.97,-179.48 809.87,-166.55 802.34,-155.84"/>
<polygon fill="black" stroke="black" points="805.24,-153.87 796.62,-147.71 799.51,-157.9 805.24,-153.87"/>
</g>
<!-- 1685818047888 -->
<g id="node50" class="node">
<title>1685818047888</title>
<polygon fill="lightblue" stroke="black" points="989,-285.25 853,-285.25 853,-251.75 989,-251.75 989,-285.25"/>
<text xml:space="preserve" text-anchor="middle" x="921" y="-271.75" font-family="monospace" font-size="10.00">affine_output.weight</text>
<text xml:space="preserve" text-anchor="middle" x="921" y="-259" font-family="monospace" font-size="10.00"> (1, 72)</text>
</g>
<!-- 1685818047888&#45;&gt;1685816367840 -->
<g id="edge48" class="edge">
<title>1685818047888&#45;&gt;1685816367840</title>
<path fill="none" stroke="black" d="M899.91,-251.5C886.04,-240.99 867.94,-227.26 853.91,-216.62"/>
<polygon fill="black" stroke="black" points="856.24,-213.99 846.16,-210.74 852.01,-219.57 856.24,-213.99"/>
</g>
</g>
</svg>
