<?xml version="1.0" encoding="UTF-8" standalone="no"?>
<!DOCTYPE svg PUBLIC "-//W3C//DTD SVG 1.1//EN"
 "http://www.w3.org/Graphics/SVG/1.1/DTD/svg11.dtd">
<!-- Generated by graphviz version 13.1.0 (20250701.0955)
 -->
<!-- Pages: 1 -->
<svg width="864pt" height="638pt"
 viewBox="0.00 0.00 864.00 638.00" xmlns="http://www.w3.org/2000/svg" xmlns:xlink="http://www.w3.org/1999/xlink">
<g id="graph0" class="graph" transform="scale(0.914286 0.914286) rotate(0) translate(4 693.5)">
<polygon fill="white" stroke="none" points="-4,4 -4,-693.5 941,-693.5 941,4 -4,4"/>
<!-- 1690308221184 -->
<g id="node1" class="node">
<title>1690308221184</title>
<polygon fill="#caff70" stroke="black" points="624,-32.75 566,-32.75 566,0 624,0 624,-32.75"/>
<text xml:space="preserve" text-anchor="middle" x="595" y="-7.25" font-family="monospace" font-size="10.00"> (1, 1)</text>
</g>
<!-- 1690186652192 -->
<g id="node2" class="node">
<title>1690186652192</title>
<polygon fill="lightgrey" stroke="black" points="645,-89.5 545,-89.5 545,-68.75 645,-68.75 645,-89.5"/>
<text xml:space="preserve" text-anchor="middle" x="595" y="-76" font-family="monospace" font-size="10.00">AddmmBackward0</text>
</g>
<!-- 1690186652192&#45;&gt;1690308221184 -->
<g id="edge35" class="edge">
<title>1690186652192&#45;&gt;1690308221184</title>
<path fill="none" stroke="black" d="M595,-68.36C595,-61.89 595,-53.05 595,-44.55"/>
<polygon fill="black" stroke="black" points="598.5,-44.55 595,-34.55 591.5,-44.55 598.5,-44.55"/>
</g>
<!-- 1690296435232 -->
<g id="node3" class="node">
<title>1690296435232</title>
<polygon fill="lightgrey" stroke="black" points="526,-146.25 426,-146.25 426,-125.5 526,-125.5 526,-146.25"/>
<text xml:space="preserve" text-anchor="middle" x="476" y="-132.75" font-family="monospace" font-size="10.00">AccumulateGrad</text>
</g>
<!-- 1690296435232&#45;&gt;1690186652192 -->
<g id="edge1" class="edge">
<title>1690296435232&#45;&gt;1690186652192</title>
<path fill="none" stroke="black" d="M497.27,-125.09C515.72,-116.6 542.66,-104.2 563.59,-94.58"/>
<polygon fill="black" stroke="black" points="564.91,-97.82 572.53,-90.46 561.99,-91.46 564.91,-97.82"/>
</g>
<!-- 1690308188176 -->
<g id="node4" class="node">
<title>1690308188176</title>
<polygon fill="lightblue" stroke="black" points="476,-215.75 352,-215.75 352,-182.25 476,-182.25 476,-215.75"/>
<text xml:space="preserve" text-anchor="middle" x="414" y="-202.25" font-family="monospace" font-size="10.00">affine_output.bias</text>
<text xml:space="preserve" text-anchor="middle" x="414" y="-189.5" font-family="monospace" font-size="10.00"> (1)</text>
</g>
<!-- 1690308188176&#45;&gt;1690296435232 -->
<g id="edge2" class="edge">
<title>1690308188176&#45;&gt;1690296435232</title>
<path fill="none" stroke="black" d="M430.29,-181.94C438.79,-173.56 449.22,-163.28 457.96,-154.66"/>
<polygon fill="black" stroke="black" points="460.28,-157.29 464.94,-147.78 455.36,-152.31 460.28,-157.29"/>
</g>
<!-- 1690186648352 -->
<g id="node5" class="node">
<title>1690186648352</title>
<polygon fill="lightgrey" stroke="black" points="639,-146.25 551,-146.25 551,-125.5 639,-125.5 639,-146.25"/>
<text xml:space="preserve" text-anchor="middle" x="595" y="-132.75" font-family="monospace" font-size="10.00">CatBackward0</text>
</g>
<!-- 1690186648352&#45;&gt;1690186652192 -->
<g id="edge3" class="edge">
<title>1690186648352&#45;&gt;1690186652192</title>
<path fill="none" stroke="black" d="M595,-125.09C595,-118.47 595,-109.47 595,-101.27"/>
<polygon fill="black" stroke="black" points="598.5,-101.34 595,-91.34 591.5,-101.34 598.5,-101.34"/>
</g>
<!-- 1690186647344 -->
<g id="node6" class="node">
<title>1690186647344</title>
<polygon fill="lightgrey" stroke="black" points="588,-209.38 494,-209.38 494,-188.62 588,-188.62 588,-209.38"/>
<text xml:space="preserve" text-anchor="middle" x="541" y="-195.88" font-family="monospace" font-size="10.00">ReluBackward0</text>
</g>
<!-- 1690186647344&#45;&gt;1690186648352 -->
<g id="edge4" class="edge">
<title>1690186647344&#45;&gt;1690186648352</title>
<path fill="none" stroke="black" d="M549.68,-188.18C557.6,-179.22 569.5,-165.74 579.12,-154.85"/>
<polygon fill="black" stroke="black" points="581.52,-157.42 585.52,-147.6 576.28,-152.78 581.52,-157.42"/>
</g>
<!-- 1690186653584 -->
<g id="node7" class="node">
<title>1690186653584</title>
<polygon fill="lightgrey" stroke="black" points="415,-278.88 315,-278.88 315,-258.12 415,-258.12 415,-278.88"/>
<text xml:space="preserve" text-anchor="middle" x="365" y="-265.38" font-family="monospace" font-size="10.00">AddmmBackward0</text>
</g>
<!-- 1690186653584&#45;&gt;1690186647344 -->
<g id="edge5" class="edge">
<title>1690186653584&#45;&gt;1690186647344</title>
<path fill="none" stroke="black" d="M390.59,-257.68C420.7,-246.14 470.89,-226.89 504.94,-213.83"/>
<polygon fill="black" stroke="black" points="505.88,-217.22 513.96,-210.37 503.37,-210.68 505.88,-217.22"/>
</g>
<!-- 1690143032176 -->
<g id="node8" class="node">
<title>1690143032176</title>
<polygon fill="lightgrey" stroke="black" points="243,-342 143,-342 143,-321.25 243,-321.25 243,-342"/>
<text xml:space="preserve" text-anchor="middle" x="193" y="-328.5" font-family="monospace" font-size="10.00">AccumulateGrad</text>
</g>
<!-- 1690143032176&#45;&gt;1690186653584 -->
<g id="edge6" class="edge">
<title>1690143032176&#45;&gt;1690186653584</title>
<path fill="none" stroke="black" d="M220.63,-320.8C249.35,-310.6 294.49,-294.56 326.65,-283.13"/>
<polygon fill="black" stroke="black" points="327.76,-286.45 336.01,-279.8 325.41,-279.85 327.76,-286.45"/>
</g>
<!-- 1692215758352 -->
<g id="node9" class="node">
<title>1692215758352</title>
<polygon fill="lightblue" stroke="black" points="245,-411.5 133,-411.5 133,-378 245,-378 245,-411.5"/>
<text xml:space="preserve" text-anchor="middle" x="189" y="-398" font-family="monospace" font-size="10.00">fc_layers.1.bias</text>
<text xml:space="preserve" text-anchor="middle" x="189" y="-385.25" font-family="monospace" font-size="10.00"> (8)</text>
</g>
<!-- 1692215758352&#45;&gt;1690143032176 -->
<g id="edge7" class="edge">
<title>1692215758352&#45;&gt;1690143032176</title>
<path fill="none" stroke="black" d="M190.05,-377.69C190.53,-370.35 191.11,-361.57 191.62,-353.71"/>
<polygon fill="black" stroke="black" points="195.1,-354.18 192.26,-343.98 188.11,-353.73 195.1,-354.18"/>
</g>
<!-- 1690186645760 -->
<g id="node10" class="node">
<title>1690186645760</title>
<polygon fill="lightgrey" stroke="black" points="364,-342 270,-342 270,-321.25 364,-321.25 364,-342"/>
<text xml:space="preserve" text-anchor="middle" x="317" y="-328.5" font-family="monospace" font-size="10.00">ReluBackward0</text>
</g>
<!-- 1690186645760&#45;&gt;1690186653584 -->
<g id="edge8" class="edge">
<title>1690186645760&#45;&gt;1690186653584</title>
<path fill="none" stroke="black" d="M324.71,-320.8C331.61,-312.02 341.91,-298.91 350.37,-288.14"/>
<polygon fill="black" stroke="black" points="353.11,-290.31 356.53,-280.29 347.6,-285.99 353.11,-290.31"/>
</g>
<!-- 1690186646288 -->
<g id="node11" class="node">
<title>1690186646288</title>
<polygon fill="lightgrey" stroke="black" points="363,-405.12 263,-405.12 263,-384.38 363,-384.38 363,-405.12"/>
<text xml:space="preserve" text-anchor="middle" x="313" y="-391.62" font-family="monospace" font-size="10.00">AddmmBackward0</text>
</g>
<!-- 1690186646288&#45;&gt;1690186645760 -->
<g id="edge9" class="edge">
<title>1690186646288&#45;&gt;1690186645760</title>
<path fill="none" stroke="black" d="M313.64,-383.93C314.18,-375.77 314.95,-363.88 315.63,-353.6"/>
<polygon fill="black" stroke="black" points="319.11,-353.94 316.27,-343.73 312.13,-353.48 319.11,-353.94"/>
</g>
<!-- 1690143040048 -->
<g id="node12" class="node">
<title>1690143040048</title>
<polygon fill="lightgrey" stroke="black" points="118,-474.62 18,-474.62 18,-453.88 118,-453.88 118,-474.62"/>
<text xml:space="preserve" text-anchor="middle" x="68" y="-461.12" font-family="monospace" font-size="10.00">AccumulateGrad</text>
</g>
<!-- 1690143040048&#45;&gt;1690186646288 -->
<g id="edge10" class="edge">
<title>1690143040048&#45;&gt;1690186646288</title>
<path fill="none" stroke="black" d="M103.63,-453.43C146.63,-441.59 219.06,-421.63 266.45,-408.58"/>
<polygon fill="black" stroke="black" points="267.16,-412.01 275.87,-405.98 265.3,-405.26 267.16,-412.01"/>
</g>
<!-- 1690308191056 -->
<g id="node13" class="node">
<title>1690308191056</title>
<polygon fill="lightblue" stroke="black" points="112,-550.5 0,-550.5 0,-517 112,-517 112,-550.5"/>
<text xml:space="preserve" text-anchor="middle" x="56" y="-537" font-family="monospace" font-size="10.00">fc_layers.0.bias</text>
<text xml:space="preserve" text-anchor="middle" x="56" y="-524.25" font-family="monospace" font-size="10.00"> (16)</text>
</g>
<!-- 1690308191056&#45;&gt;1690143040048 -->
<g id="edge11" class="edge">
<title>1690308191056&#45;&gt;1690143040048</title>
<path fill="none" stroke="black" d="M58.84,-516.75C60.46,-507.65 62.51,-496.14 64.25,-486.32"/>
<polygon fill="black" stroke="black" points="67.68,-487.02 65.99,-476.56 60.79,-485.8 67.68,-487.02"/>
</g>
<!-- 1690186651664 -->
<g id="node14" class="node">
<title>1690186651664</title>
<polygon fill="lightgrey" stroke="black" points="307,-474.62 219,-474.62 219,-453.88 307,-453.88 307,-474.62"/>
<text xml:space="preserve" text-anchor="middle" x="263" y="-461.12" font-family="monospace" font-size="10.00">CatBackward0</text>
</g>
<!-- 1690186651664&#45;&gt;1690186646288 -->
<g id="edge12" class="edge">
<title>1690186651664&#45;&gt;1690186646288</title>
<path fill="none" stroke="black" d="M270.16,-453.58C277.66,-443.45 289.63,-427.3 299.01,-414.63"/>
<polygon fill="black" stroke="black" points="301.81,-416.74 304.95,-406.62 296.18,-412.57 301.81,-416.74"/>
</g>
<!-- 1690186659248 -->
<g id="node15" class="node">
<title>1690186659248</title>
<polygon fill="lightgrey" stroke="black" points="254,-544.12 130,-544.12 130,-523.38 254,-523.38 254,-544.12"/>
<text xml:space="preserve" text-anchor="middle" x="192" y="-530.62" font-family="monospace" font-size="10.00">EmbeddingBackward0</text>
</g>
<!-- 1690186659248&#45;&gt;1690186651664 -->
<g id="edge13" class="edge">
<title>1690186659248&#45;&gt;1690186651664</title>
<path fill="none" stroke="black" d="M202.17,-523.08C213.24,-512.55 231.17,-495.51 244.71,-482.64"/>
<polygon fill="black" stroke="black" points="246.91,-485.37 251.75,-475.95 242.09,-480.3 246.91,-485.37"/>
</g>
<!-- 1690143045040 -->
<g id="node16" class="node">
<title>1690143045040</title>
<polygon fill="lightgrey" stroke="black" points="232,-613.62 132,-613.62 132,-592.88 232,-592.88 232,-613.62"/>
<text xml:space="preserve" text-anchor="middle" x="182" y="-600.12" font-family="monospace" font-size="10.00">AccumulateGrad</text>
</g>
<!-- 1690143045040&#45;&gt;1690186659248 -->
<g id="edge14" class="edge">
<title>1690143045040&#45;&gt;1690186659248</title>
<path fill="none" stroke="black" d="M183.43,-592.58C184.86,-582.96 187.09,-567.88 188.92,-555.54"/>
<polygon fill="black" stroke="black" points="192.34,-556.31 190.35,-545.9 185.42,-555.28 192.34,-556.31"/>
</g>
<!-- 1690308183536 -->
<g id="node17" class="node">
<title>1690308183536</title>
<polygon fill="lightblue" stroke="black" points="244,-689.5 78,-689.5 78,-656 244,-656 244,-689.5"/>
<text xml:space="preserve" text-anchor="middle" x="161" y="-676" font-family="monospace" font-size="10.00">embedding_user_mlp.weight</text>
<text xml:space="preserve" text-anchor="middle" x="161" y="-663.25" font-family="monospace" font-size="10.00"> (100, 16)</text>
</g>
<!-- 1690308183536&#45;&gt;1690143045040 -->
<g id="edge15" class="edge">
<title>1690308183536&#45;&gt;1690143045040</title>
<path fill="none" stroke="black" d="M165.98,-655.75C168.84,-646.55 172.47,-634.89 175.55,-624.99"/>
<polygon fill="black" stroke="black" points="178.87,-626.11 178.49,-615.52 172.18,-624.03 178.87,-626.11"/>
</g>
<!-- 1690186645808 -->
<g id="node18" class="node">
<title>1690186645808</title>
<polygon fill="lightgrey" stroke="black" points="396,-544.12 272,-544.12 272,-523.38 396,-523.38 396,-544.12"/>
<text xml:space="preserve" text-anchor="middle" x="334" y="-530.62" font-family="monospace" font-size="10.00">EmbeddingBackward0</text>
</g>
<!-- 1690186645808&#45;&gt;1690186651664 -->
<g id="edge16" class="edge">
<title>1690186645808&#45;&gt;1690186651664</title>
<path fill="none" stroke="black" d="M323.83,-523.08C312.76,-512.55 294.83,-495.51 281.29,-482.64"/>
<polygon fill="black" stroke="black" points="283.91,-480.3 274.25,-475.95 279.09,-485.37 283.91,-480.3"/>
</g>
<!-- 1690186164800 -->
<g id="node19" class="node">
<title>1690186164800</title>
<polygon fill="lightgrey" stroke="black" points="384,-613.62 284,-613.62 284,-592.88 384,-592.88 384,-613.62"/>
<text xml:space="preserve" text-anchor="middle" x="334" y="-600.12" font-family="monospace" font-size="10.00">AccumulateGrad</text>
</g>
<!-- 1690186164800&#45;&gt;1690186645808 -->
<g id="edge17" class="edge">
<title>1690186164800&#45;&gt;1690186645808</title>
<path fill="none" stroke="black" d="M334,-592.58C334,-582.96 334,-567.88 334,-555.54"/>
<polygon fill="black" stroke="black" points="337.5,-555.92 334,-545.92 330.5,-555.92 337.5,-555.92"/>
</g>
<!-- 1690308191536 -->
<g id="node20" class="node">
<title>1690308191536</title>
<polygon fill="lightblue" stroke="black" points="428,-689.5 262,-689.5 262,-656 428,-656 428,-689.5"/>
<text xml:space="preserve" text-anchor="middle" x="345" y="-676" font-family="monospace" font-size="10.00">embedding_item_mlp.weight</text>
<text xml:space="preserve" text-anchor="middle" x="345" y="-663.25" font-family="monospace" font-size="10.00"> (200, 16)</text>
</g>
<!-- 1690308191536&#45;&gt;1690186164800 -->
<g id="edge18" class="edge">
<title>1690308191536&#45;&gt;1690186164800</title>
<path fill="none" stroke="black" d="M342.39,-655.75C340.91,-646.65 339.03,-635.14 337.43,-625.32"/>
<polygon fill="black" stroke="black" points="340.91,-624.87 335.84,-615.57 334,-626 340.91,-624.87"/>
</g>
<!-- 1690186649792 -->
<g id="node21" class="node">
<title>1690186649792</title>
<polygon fill="lightgrey" stroke="black" points="401,-474.62 325,-474.62 325,-453.88 401,-453.88 401,-474.62"/>
<text xml:space="preserve" text-anchor="middle" x="363" y="-461.12" font-family="monospace" font-size="10.00">TBackward0</text>
</g>
<!-- 1690186649792&#45;&gt;1690186646288 -->
<g id="edge19" class="edge">
<title>1690186649792&#45;&gt;1690186646288</title>
<path fill="none" stroke="black" d="M355.84,-453.58C348.34,-443.45 336.37,-427.3 326.99,-414.63"/>
<polygon fill="black" stroke="black" points="329.82,-412.57 321.05,-406.62 324.19,-416.74 329.82,-412.57"/>
</g>
<!-- 1690143031984 -->
<g id="node22" class="node">
<title>1690143031984</title>
<polygon fill="lightgrey" stroke="black" points="514,-544.12 414,-544.12 414,-523.38 514,-523.38 514,-544.12"/>
<text xml:space="preserve" text-anchor="middle" x="464" y="-530.62" font-family="monospace" font-size="10.00">AccumulateGrad</text>
</g>
<!-- 1690143031984&#45;&gt;1690186649792 -->
<g id="edge20" class="edge">
<title>1690143031984&#45;&gt;1690186649792</title>
<path fill="none" stroke="black" d="M449.53,-523.08C433.27,-512.21 406.62,-494.4 387.18,-481.41"/>
<polygon fill="black" stroke="black" points="389.29,-478.61 379.03,-475.96 385.4,-484.43 389.29,-478.61"/>
</g>
<!-- 1690308191616 -->
<g id="node23" class="node">
<title>1690308191616</title>
<polygon fill="lightblue" stroke="black" points="526,-620 402,-620 402,-586.5 526,-586.5 526,-620"/>
<text xml:space="preserve" text-anchor="middle" x="464" y="-606.5" font-family="monospace" font-size="10.00">fc_layers.0.weight</text>
<text xml:space="preserve" text-anchor="middle" x="464" y="-593.75" font-family="monospace" font-size="10.00"> (16, 32)</text>
</g>
<!-- 1690308191616&#45;&gt;1690143031984 -->
<g id="edge21" class="edge">
<title>1690308191616&#45;&gt;1690143031984</title>
<path fill="none" stroke="black" d="M464,-586.25C464,-577.15 464,-565.64 464,-555.82"/>
<polygon fill="black" stroke="black" points="467.5,-556.09 464,-546.09 460.5,-556.09 467.5,-556.09"/>
</g>
<!-- 1690186652672 -->
<g id="node24" class="node">
<title>1690186652672</title>
<polygon fill="lightgrey" stroke="black" points="462,-342 386,-342 386,-321.25 462,-321.25 462,-342"/>
<text xml:space="preserve" text-anchor="middle" x="424" y="-328.5" font-family="monospace" font-size="10.00">TBackward0</text>
</g>
<!-- 1690186652672&#45;&gt;1690186653584 -->
<g id="edge22" class="edge">
<title>1690186652672&#45;&gt;1690186653584</title>
<path fill="none" stroke="black" d="M414.52,-320.8C405.78,-311.75 392.6,-298.1 382.04,-287.15"/>
<polygon fill="black" stroke="black" points="384.78,-284.95 375.31,-280.18 379.74,-289.81 384.78,-284.95"/>
</g>
<!-- 1690143037504 -->
<g id="node25" class="node">
<title>1690143037504</title>
<polygon fill="lightgrey" stroke="black" points="481,-405.12 381,-405.12 381,-384.38 481,-384.38 481,-405.12"/>
<text xml:space="preserve" text-anchor="middle" x="431" y="-391.62" font-family="monospace" font-size="10.00">AccumulateGrad</text>
</g>
<!-- 1690143037504&#45;&gt;1690186652672 -->
<g id="edge23" class="edge">
<title>1690143037504&#45;&gt;1690186652672</title>
<path fill="none" stroke="black" d="M429.88,-383.93C428.94,-375.77 427.58,-363.88 426.4,-353.6"/>
<polygon fill="black" stroke="black" points="429.89,-353.26 425.27,-343.72 422.93,-354.06 429.89,-353.26"/>
</g>
<!-- 1690142472176 -->
<g id="node26" class="node">
<title>1690142472176</title>
<polygon fill="lightblue" stroke="black" points="543,-481 419,-481 419,-447.5 543,-447.5 543,-481"/>
<text xml:space="preserve" text-anchor="middle" x="481" y="-467.5" font-family="monospace" font-size="10.00">fc_layers.1.weight</text>
<text xml:space="preserve" text-anchor="middle" x="481" y="-454.75" font-family="monospace" font-size="10.00"> (8, 16)</text>
</g>
<!-- 1690142472176&#45;&gt;1690143037504 -->
<g id="edge24" class="edge">
<title>1690142472176&#45;&gt;1690143037504</title>
<path fill="none" stroke="black" d="M469.15,-447.25C461.89,-437.44 452.55,-424.84 444.93,-414.55"/>
<polygon fill="black" stroke="black" points="447.94,-412.74 439.18,-406.79 442.32,-416.91 447.94,-412.74"/>
</g>
<!-- 1690186647104 -->
<g id="node27" class="node">
<title>1690186647104</title>
<polygon fill="lightgrey" stroke="black" points="694,-209.38 606,-209.38 606,-188.62 694,-188.62 694,-209.38"/>
<text xml:space="preserve" text-anchor="middle" x="650" y="-195.88" font-family="monospace" font-size="10.00">MulBackward0</text>
</g>
<!-- 1690186647104&#45;&gt;1690186648352 -->
<g id="edge25" class="edge">
<title>1690186647104&#45;&gt;1690186648352</title>
<path fill="none" stroke="black" d="M641.16,-188.18C633.1,-179.22 620.98,-165.74 611.18,-154.85"/>
<polygon fill="black" stroke="black" points="613.94,-152.69 604.65,-147.6 608.73,-157.37 613.94,-152.69"/>
</g>
<!-- 1690186660208 -->
<g id="node28" class="node">
<title>1690186660208</title>
<polygon fill="lightgrey" stroke="black" points="641,-278.88 517,-278.88 517,-258.12 641,-258.12 641,-278.88"/>
<text xml:space="preserve" text-anchor="middle" x="579" y="-265.38" font-family="monospace" font-size="10.00">EmbeddingBackward0</text>
</g>
<!-- 1690186660208&#45;&gt;1690186647104 -->
<g id="edge26" class="edge">
<title>1690186660208&#45;&gt;1690186647104</title>
<path fill="none" stroke="black" d="M589.17,-257.83C600.24,-247.3 618.17,-230.26 631.71,-217.39"/>
<polygon fill="black" stroke="black" points="633.91,-220.12 638.75,-210.7 629.09,-215.05 633.91,-220.12"/>
</g>
<!-- 1690186158752 -->
<g id="node29" class="node">
<title>1690186158752</title>
<polygon fill="lightgrey" stroke="black" points="629,-342 529,-342 529,-321.25 629,-321.25 629,-342"/>
<text xml:space="preserve" text-anchor="middle" x="579" y="-328.5" font-family="monospace" font-size="10.00">AccumulateGrad</text>
</g>
<!-- 1690186158752&#45;&gt;1690186660208 -->
<g id="edge27" class="edge">
<title>1690186158752&#45;&gt;1690186660208</title>
<path fill="none" stroke="black" d="M579,-320.8C579,-312.65 579,-300.76 579,-290.48"/>
<polygon fill="black" stroke="black" points="582.5,-290.61 579,-280.61 575.5,-290.61 582.5,-290.61"/>
</g>
<!-- 1690308191456 -->
<g id="node30" class="node">
<title>1690308191456</title>
<polygon fill="lightblue" stroke="black" points="659,-411.5 499,-411.5 499,-378 659,-378 659,-411.5"/>
<text xml:space="preserve" text-anchor="middle" x="579" y="-398" font-family="monospace" font-size="10.00">embedding_user_mf.weight</text>
<text xml:space="preserve" text-anchor="middle" x="579" y="-385.25" font-family="monospace" font-size="10.00"> (100, 16)</text>
</g>
<!-- 1690308191456&#45;&gt;1690186158752 -->
<g id="edge28" class="edge">
<title>1690308191456&#45;&gt;1690186158752</title>
<path fill="none" stroke="black" d="M579,-377.69C579,-370.35 579,-361.57 579,-353.71"/>
<polygon fill="black" stroke="black" points="582.5,-353.98 579,-343.98 575.5,-353.98 582.5,-353.98"/>
</g>
<!-- 1690186653968 -->
<g id="node31" class="node">
<title>1690186653968</title>
<polygon fill="lightgrey" stroke="black" points="783,-278.88 659,-278.88 659,-258.12 783,-258.12 783,-278.88"/>
<text xml:space="preserve" text-anchor="middle" x="721" y="-265.38" font-family="monospace" font-size="10.00">EmbeddingBackward0</text>
</g>
<!-- 1690186653968&#45;&gt;1690186647104 -->
<g id="edge29" class="edge">
<title>1690186653968&#45;&gt;1690186647104</title>
<path fill="none" stroke="black" d="M710.83,-257.83C699.76,-247.3 681.83,-230.26 668.29,-217.39"/>
<polygon fill="black" stroke="black" points="670.91,-215.05 661.25,-210.7 666.09,-220.12 670.91,-215.05"/>
</g>
<!-- 1690186163792 -->
<g id="node32" class="node">
<title>1690186163792</title>
<polygon fill="lightgrey" stroke="black" points="789,-342 689,-342 689,-321.25 789,-321.25 789,-342"/>
<text xml:space="preserve" text-anchor="middle" x="739" y="-328.5" font-family="monospace" font-size="10.00">AccumulateGrad</text>
</g>
<!-- 1690186163792&#45;&gt;1690186653968 -->
<g id="edge30" class="edge">
<title>1690186163792&#45;&gt;1690186653968</title>
<path fill="none" stroke="black" d="M736.11,-320.8C733.68,-312.56 730.13,-300.5 727.08,-290.14"/>
<polygon fill="black" stroke="black" points="730.44,-289.15 724.25,-280.55 723.72,-291.13 730.44,-289.15"/>
</g>
<!-- 1690308191216 -->
<g id="node33" class="node">
<title>1690308191216</title>
<polygon fill="lightblue" stroke="black" points="837,-411.5 677,-411.5 677,-378 837,-378 837,-411.5"/>
<text xml:space="preserve" text-anchor="middle" x="757" y="-398" font-family="monospace" font-size="10.00">embedding_item_mf.weight</text>
<text xml:space="preserve" text-anchor="middle" x="757" y="-385.25" font-family="monospace" font-size="10.00"> (200, 16)</text>
</g>
<!-- 1690308191216&#45;&gt;1690186163792 -->
<g id="edge31" class="edge">
<title>1690308191216&#45;&gt;1690186163792</title>
<path fill="none" stroke="black" d="M752.27,-377.69C750.08,-370.27 747.46,-361.36 745.13,-353.43"/>
<polygon fill="black" stroke="black" points="748.51,-352.52 742.33,-343.92 741.79,-354.5 748.51,-352.52"/>
</g>
<!-- 1690186650560 -->
<g id="node34" class="node">
<title>1690186650560</title>
<polygon fill="lightgrey" stroke="black" points="775,-146.25 699,-146.25 699,-125.5 775,-125.5 775,-146.25"/>
<text xml:space="preserve" text-anchor="middle" x="737" y="-132.75" font-family="monospace" font-size="10.00">TBackward0</text>
</g>
<!-- 1690186650560&#45;&gt;1690186652192 -->
<g id="edge32" class="edge">
<title>1690186650560&#45;&gt;1690186652192</title>
<path fill="none" stroke="black" d="M711.61,-125.09C689.1,-116.41 655.97,-103.63 630.77,-93.92"/>
<polygon fill="black" stroke="black" points="632.17,-90.7 621.58,-90.37 629.65,-97.24 632.17,-90.7"/>
</g>
<!-- 1690296448096 -->
<g id="node35" class="node">
<title>1690296448096</title>
<polygon fill="lightgrey" stroke="black" points="830,-209.38 730,-209.38 730,-188.62 830,-188.62 830,-209.38"/>
<text xml:space="preserve" text-anchor="middle" x="780" y="-195.88" font-family="monospace" font-size="10.00">AccumulateGrad</text>
</g>
<!-- 1690296448096&#45;&gt;1690186650560 -->
<g id="edge33" class="edge">
<title>1690296448096&#45;&gt;1690186650560</title>
<path fill="none" stroke="black" d="M773.09,-188.18C766.97,-179.48 757.87,-166.55 750.34,-155.84"/>
<polygon fill="black" stroke="black" points="753.24,-153.87 744.62,-147.71 747.51,-157.9 753.24,-153.87"/>
</g>
<!-- 1690308185536 -->
<g id="node36" class="node">
<title>1690308185536</title>
<polygon fill="lightblue" stroke="black" points="937,-285.25 801,-285.25 801,-251.75 937,-251.75 937,-285.25"/>
<text xml:space="preserve" text-anchor="middle" x="869" y="-271.75" font-family="monospace" font-size="10.00">affine_output.weight</text>
<text xml:space="preserve" text-anchor="middle" x="869" y="-259" font-family="monospace" font-size="10.00"> (1, 24)</text>
</g>
<!-- 1690308185536&#45;&gt;1690296448096 -->
<g id="edge34" class="edge">
<title>1690308185536&#45;&gt;1690296448096</title>
<path fill="none" stroke="black" d="M847.91,-251.5C834.04,-240.99 815.94,-227.26 801.91,-216.62"/>
<polygon fill="black" stroke="black" points="804.24,-213.99 794.16,-210.74 800.01,-219.57 804.24,-213.99"/>
</g>
</g>
</svg>
