<?xml version="1.0" encoding="UTF-8" standalone="no"?>
<!DOCTYPE svg PUBLIC "-//W3C//DTD SVG 1.1//EN"
 "http://www.w3.org/Graphics/SVG/1.1/DTD/svg11.dtd">
<!-- Generated by graphviz version 13.1.0 (20250701.0955)
 -->
<!-- Pages: 1 -->
<svg width="274pt" height="337pt"
 viewBox="0.00 0.00 274.00 337.00" xmlns="http://www.w3.org/2000/svg" xmlns:xlink="http://www.w3.org/1999/xlink">
<g id="graph0" class="graph" transform="scale(1 1) rotate(0) translate(4 333.25)">
<polygon fill="white" stroke="none" points="-4,4 -4,-333.25 270,-333.25 270,4 -4,4"/>
<!-- 1685818091840 -->
<g id="node1" class="node">
<title>1685818091840</title>
<polygon fill="#caff70" stroke="black" points="160,-32.75 106,-32.75 106,0 160,0 160,-32.75"/>
<text xml:space="preserve" text-anchor="middle" x="133" y="-7.25" font-family="monospace" font-size="10.00"> (1)</text>
</g>
<!-- 1685816612448 -->
<g id="node2" class="node">
<title>1685816612448</title>
<polygon fill="lightgrey" stroke="black" points="177,-89.5 89,-89.5 89,-68.75 177,-68.75 177,-89.5"/>
<text xml:space="preserve" text-anchor="middle" x="133" y="-76" font-family="monospace" font-size="10.00">SumBackward1</text>
</g>
<!-- 1685816612448&#45;&gt;1685818091840 -->
<g id="edge8" class="edge">
<title>1685816612448&#45;&gt;1685818091840</title>
<path fill="none" stroke="black" d="M133,-68.36C133,-61.89 133,-53.05 133,-44.55"/>
<polygon fill="black" stroke="black" points="136.5,-44.55 133,-34.55 129.5,-44.55 136.5,-44.55"/>
</g>
<!-- 1685816609952 -->
<g id="node3" class="node">
<title>1685816609952</title>
<polygon fill="lightgrey" stroke="black" points="177,-146.25 89,-146.25 89,-125.5 177,-125.5 177,-146.25"/>
<text xml:space="preserve" text-anchor="middle" x="133" y="-132.75" font-family="monospace" font-size="10.00">MulBackward0</text>
</g>
<!-- 1685816609952&#45;&gt;1685816612448 -->
<g id="edge1" class="edge">
<title>1685816609952&#45;&gt;1685816612448</title>
<path fill="none" stroke="black" d="M133,-125.09C133,-118.47 133,-109.47 133,-101.27"/>
<polygon fill="black" stroke="black" points="136.5,-101.34 133,-91.34 129.5,-101.34 136.5,-101.34"/>
</g>
<!-- 1685816609664 -->
<g id="node4" class="node">
<title>1685816609664</title>
<polygon fill="lightgrey" stroke="black" points="124,-203 0,-203 0,-182.25 124,-182.25 124,-203"/>
<text xml:space="preserve" text-anchor="middle" x="62" y="-189.5" font-family="monospace" font-size="10.00">EmbeddingBackward0</text>
</g>
<!-- 1685816609664&#45;&gt;1685816609952 -->
<g id="edge2" class="edge">
<title>1685816609664&#45;&gt;1685816609952</title>
<path fill="none" stroke="black" d="M74.69,-181.84C84.89,-173.97 99.44,-162.75 111.46,-153.49"/>
<polygon fill="black" stroke="black" points="113.44,-156.38 119.22,-147.5 109.16,-150.84 113.44,-156.38"/>
</g>
<!-- 1685816617824 -->
<g id="node5" class="node">
<title>1685816617824</title>
<polygon fill="lightgrey" stroke="black" points="112,-259.75 12,-259.75 12,-239 112,-239 112,-259.75"/>
<text xml:space="preserve" text-anchor="middle" x="62" y="-246.25" font-family="monospace" font-size="10.00">AccumulateGrad</text>
</g>
<!-- 1685816617824&#45;&gt;1685816609664 -->
<g id="edge3" class="edge">
<title>1685816617824&#45;&gt;1685816609664</title>
<path fill="none" stroke="black" d="M62,-238.59C62,-231.97 62,-222.97 62,-214.77"/>
<polygon fill="black" stroke="black" points="65.5,-214.84 62,-204.84 58.5,-214.84 65.5,-214.84"/>
</g>
<!-- 1685818040768 -->
<g id="node6" class="node">
<title>1685818040768</title>
<polygon fill="lightblue" stroke="black" points="106,-329.25 18,-329.25 18,-295.75 106,-295.75 106,-329.25"/>
<text xml:space="preserve" text-anchor="middle" x="62" y="-315.75" font-family="monospace" font-size="10.00">u_emb.weight</text>
<text xml:space="preserve" text-anchor="middle" x="62" y="-303" font-family="monospace" font-size="10.00"> (100, 32)</text>
</g>
<!-- 1685818040768&#45;&gt;1685816617824 -->
<g id="edge4" class="edge">
<title>1685818040768&#45;&gt;1685816617824</title>
<path fill="none" stroke="black" d="M62,-295.44C62,-288.1 62,-279.32 62,-271.46"/>
<polygon fill="black" stroke="black" points="65.5,-271.73 62,-261.73 58.5,-271.73 65.5,-271.73"/>
</g>
<!-- 1685816618496 -->
<g id="node7" class="node">
<title>1685816618496</title>
<polygon fill="lightgrey" stroke="black" points="266,-203 142,-203 142,-182.25 266,-182.25 266,-203"/>
<text xml:space="preserve" text-anchor="middle" x="204" y="-189.5" font-family="monospace" font-size="10.00">EmbeddingBackward0</text>
</g>
<!-- 1685816618496&#45;&gt;1685816609952 -->
<g id="edge5" class="edge">
<title>1685816618496&#45;&gt;1685816609952</title>
<path fill="none" stroke="black" d="M191.31,-181.84C181.11,-173.97 166.56,-162.75 154.54,-153.49"/>
<polygon fill="black" stroke="black" points="156.84,-150.84 146.78,-147.5 152.56,-156.38 156.84,-150.84"/>
</g>
<!-- 1685816614176 -->
<g id="node8" class="node">
<title>1685816614176</title>
<polygon fill="lightgrey" stroke="black" points="254,-259.75 154,-259.75 154,-239 254,-239 254,-259.75"/>
<text xml:space="preserve" text-anchor="middle" x="204" y="-246.25" font-family="monospace" font-size="10.00">AccumulateGrad</text>
</g>
<!-- 1685816614176&#45;&gt;1685816618496 -->
<g id="edge6" class="edge">
<title>1685816614176&#45;&gt;1685816618496</title>
<path fill="none" stroke="black" d="M204,-238.59C204,-231.97 204,-222.97 204,-214.77"/>
<polygon fill="black" stroke="black" points="207.5,-214.84 204,-204.84 200.5,-214.84 207.5,-214.84"/>
</g>
<!-- 1685818044288 -->
<g id="node9" class="node">
<title>1685818044288</title>
<polygon fill="lightblue" stroke="black" points="248,-329.25 160,-329.25 160,-295.75 248,-295.75 248,-329.25"/>
<text xml:space="preserve" text-anchor="middle" x="204" y="-315.75" font-family="monospace" font-size="10.00">i_emb.weight</text>
<text xml:space="preserve" text-anchor="middle" x="204" y="-303" font-family="monospace" font-size="10.00"> (200, 32)</text>
</g>
<!-- 1685818044288&#45;&gt;1685816614176 -->
<g id="edge7" class="edge">
<title>1685818044288&#45;&gt;1685816614176</title>
<path fill="none" stroke="black" d="M204,-295.44C204,-288.1 204,-279.32 204,-271.46"/>
<polygon fill="black" stroke="black" points="207.5,-271.73 204,-261.73 200.5,-271.73 207.5,-271.73"/>
</g>
</g>
</svg>
