<?xml version="1.0" encoding="UTF-8" standalone="no"?>
<!DOCTYPE svg PUBLIC "-//W3C//DTD SVG 1.1//EN"
 "http://www.w3.org/Graphics/SVG/1.1/DTD/svg11.dtd">
<!-- Generated by graphviz version 13.1.0 (20250701.0955)
 -->
<!-- Pages: 1 -->
<svg width="799pt" height="1322pt"
 viewBox="0.00 0.00 799.00 1322.00" xmlns="http://www.w3.org/2000/svg" xmlns:xlink="http://www.w3.org/1999/xlink">
<g id="graph0" class="graph" transform="scale(1 1) rotate(0) translate(4 1318.25)">
<polygon fill="white" stroke="none" points="-4,4 -4,-1318.25 795,-1318.25 795,4 -4,4"/>
<!-- 1685818182144 -->
<g id="node1" class="node">
<title>1685818182144</title>
<polygon fill="#caff70" stroke="black" points="364,-32.75 310,-32.75 310,0 364,0 364,-32.75"/>
<text xml:space="preserve" text-anchor="middle" x="337" y="-7.25" font-family="monospace" font-size="10.00"> ()</text>
</g>
<!-- 1685816373024 -->
<g id="node2" class="node">
<title>1685816373024</title>
<polygon fill="lightgrey" stroke="black" points="342,-95.5 230,-95.5 230,-74.75 342,-74.75 342,-95.5"/>
<text xml:space="preserve" text-anchor="middle" x="286" y="-82" font-family="monospace" font-size="10.00">SqueezeBackward0</text>
</g>
<!-- 1685816373024&#45;&gt;1685818182144 -->
<g id="edge64" class="edge">
<title>1685816373024&#45;&gt;1685818182144</title>
<path fill="none" stroke="black" d="M293.53,-74.28C299.98,-65.83 309.55,-53.3 318.07,-42.15"/>
<polygon fill="black" stroke="black" points="320.68,-44.5 323.97,-34.43 315.12,-40.25 320.68,-44.5"/>
</g>
<!-- 1685816365728 -->
<g id="node3" class="node">
<title>1685816365728</title>
<polygon fill="lightgrey" stroke="black" points="387,-158.25 287,-158.25 287,-137.5 387,-137.5 387,-158.25"/>
<text xml:space="preserve" text-anchor="middle" x="337" y="-144.75" font-family="monospace" font-size="10.00">AddmmBackward0</text>
</g>
<!-- 1685816365728&#45;&gt;1685816373024 -->
<g id="edge1" class="edge">
<title>1685816365728&#45;&gt;1685816373024</title>
<path fill="none" stroke="black" d="M328.81,-137.11C321.4,-128.29 310.31,-115.08 301.27,-104.32"/>
<polygon fill="black" stroke="black" points="304.09,-102.23 294.98,-96.82 298.73,-106.73 304.09,-102.23"/>
</g>
<!-- 1685818181824 -->
<g id="node66" class="node">
<title>1685818181824</title>
<polygon fill="#a2cd5a" stroke="black" points="418,-101.5 360,-101.5 360,-68.75 418,-68.75 418,-101.5"/>
<text xml:space="preserve" text-anchor="middle" x="389" y="-76" font-family="monospace" font-size="10.00"> (1, 1)</text>
</g>
<!-- 1685816365728&#45;&gt;1685818181824 -->
<g id="edge65" class="edge">
<title>1685816365728&#45;&gt;1685818181824</title>
<path fill="none" stroke="black" d="M345.35,-137.11C351.53,-129.9 360.23,-119.74 368.24,-110.38"/>
<polygon fill="black" stroke="black" points="370.77,-112.81 374.61,-102.94 365.45,-108.26 370.77,-112.81"/>
</g>
<!-- 1685819049296 -->
<g id="node4" class="node">
<title>1685819049296</title>
<polygon fill="lightgrey" stroke="black" points="271,-215 171,-215 171,-194.25 271,-194.25 271,-215"/>
<text xml:space="preserve" text-anchor="middle" x="221" y="-201.5" font-family="monospace" font-size="10.00">AccumulateGrad</text>
</g>
<!-- 1685819049296&#45;&gt;1685816365728 -->
<g id="edge2" class="edge">
<title>1685819049296&#45;&gt;1685816365728</title>
<path fill="none" stroke="black" d="M241.74,-193.84C259.64,-185.39 285.74,-173.07 306.1,-163.46"/>
<polygon fill="black" stroke="black" points="307.52,-166.66 315.07,-159.22 304.54,-160.33 307.52,-166.66"/>
</g>
<!-- 1685818039968 -->
<g id="node5" class="node">
<title>1685818039968</title>
<polygon fill="lightblue" stroke="black" points="216,-284.5 98,-284.5 98,-251 216,-251 216,-284.5"/>
<text xml:space="preserve" text-anchor="middle" x="157" y="-271" font-family="monospace" font-size="10.00">output_layer.bias</text>
<text xml:space="preserve" text-anchor="middle" x="157" y="-258.25" font-family="monospace" font-size="10.00"> (1)</text>
</g>
<!-- 1685818039968&#45;&gt;1685819049296 -->
<g id="edge3" class="edge">
<title>1685818039968&#45;&gt;1685819049296</title>
<path fill="none" stroke="black" d="M173.82,-250.69C182.59,-242.31 193.35,-232.03 202.38,-223.41"/>
<polygon fill="black" stroke="black" points="204.79,-225.95 209.6,-216.51 199.95,-220.89 204.79,-225.95"/>
</g>
<!-- 1685816370336 -->
<g id="node6" class="node">
<title>1685816370336</title>
<polygon fill="lightgrey" stroke="black" points="381,-215 293,-215 293,-194.25 381,-194.25 381,-215"/>
<text xml:space="preserve" text-anchor="middle" x="337" y="-201.5" font-family="monospace" font-size="10.00">CatBackward0</text>
</g>
<!-- 1685816370336&#45;&gt;1685816365728 -->
<g id="edge4" class="edge">
<title>1685816370336&#45;&gt;1685816365728</title>
<path fill="none" stroke="black" d="M337,-193.84C337,-187.22 337,-178.22 337,-170.02"/>
<polygon fill="black" stroke="black" points="340.5,-170.09 337,-160.09 333.5,-170.09 340.5,-170.09"/>
</g>
<!-- 1685816366112 -->
<g id="node7" class="node">
<title>1685816366112</title>
<polygon fill="lightgrey" stroke="black" points="322,-278.12 234,-278.12 234,-257.38 322,-257.38 322,-278.12"/>
<text xml:space="preserve" text-anchor="middle" x="278" y="-264.62" font-family="monospace" font-size="10.00">MulBackward0</text>
</g>
<!-- 1685816366112&#45;&gt;1685816370336 -->
<g id="edge5" class="edge">
<title>1685816366112&#45;&gt;1685816370336</title>
<path fill="none" stroke="black" d="M287.48,-256.93C296.22,-247.88 309.4,-234.22 319.96,-223.28"/>
<polygon fill="black" stroke="black" points="322.26,-225.93 326.69,-216.31 317.22,-221.07 322.26,-225.93"/>
</g>
<!-- 1685816364000 -->
<g id="node8" class="node">
<title>1685816364000</title>
<polygon fill="lightgrey" stroke="black" points="160,-347.62 36,-347.62 36,-326.88 160,-326.88 160,-347.62"/>
<text xml:space="preserve" text-anchor="middle" x="98" y="-334.12" font-family="monospace" font-size="10.00">EmbeddingBackward0</text>
</g>
<!-- 1685816364000&#45;&gt;1685816366112 -->
<g id="edge6" class="edge">
<title>1685816364000&#45;&gt;1685816366112</title>
<path fill="none" stroke="black" d="M124.17,-326.43C154.97,-314.89 206.3,-295.64 241.12,-282.58"/>
<polygon fill="black" stroke="black" points="242.24,-285.9 250.38,-279.11 239.79,-279.34 242.24,-285.9"/>
</g>
<!-- 1685793499952 -->
<g id="node9" class="node">
<title>1685793499952</title>
<polygon fill="lightgrey" stroke="black" points="139,-410.75 39,-410.75 39,-390 139,-390 139,-410.75"/>
<text xml:space="preserve" text-anchor="middle" x="89" y="-397.25" font-family="monospace" font-size="10.00">AccumulateGrad</text>
</g>
<!-- 1685793499952&#45;&gt;1685816364000 -->
<g id="edge7" class="edge">
<title>1685793499952&#45;&gt;1685816364000</title>
<path fill="none" stroke="black" d="M90.45,-389.55C91.65,-381.4 93.4,-369.51 94.91,-359.23"/>
<polygon fill="black" stroke="black" points="98.37,-359.75 96.37,-349.34 91.45,-358.73 98.37,-359.75"/>
</g>
<!-- 1685818089200 -->
<g id="node10" class="node">
<title>1685818089200</title>
<polygon fill="lightblue" stroke="black" points="160,-480.25 0,-480.25 0,-446.75 160,-446.75 160,-480.25"/>
<text xml:space="preserve" text-anchor="middle" x="80" y="-466.75" font-family="monospace" font-size="10.00">user_embedding_mf.weight</text>
<text xml:space="preserve" text-anchor="middle" x="80" y="-454" font-family="monospace" font-size="10.00"> (100, 128)</text>
</g>
<!-- 1685818089200&#45;&gt;1685793499952 -->
<g id="edge8" class="edge">
<title>1685818089200&#45;&gt;1685793499952</title>
<path fill="none" stroke="black" d="M82.36,-446.44C83.44,-439.1 84.74,-430.32 85.9,-422.46"/>
<polygon fill="black" stroke="black" points="89.34,-423.12 87.33,-412.71 82.41,-422.1 89.34,-423.12"/>
</g>
<!-- 1685816365152 -->
<g id="node11" class="node">
<title>1685816365152</title>
<polygon fill="lightgrey" stroke="black" points="335,-347.62 211,-347.62 211,-326.88 335,-326.88 335,-347.62"/>
<text xml:space="preserve" text-anchor="middle" x="273" y="-334.12" font-family="monospace" font-size="10.00">EmbeddingBackward0</text>
</g>
<!-- 1685816365152&#45;&gt;1685816366112 -->
<g id="edge9" class="edge">
<title>1685816365152&#45;&gt;1685816366112</title>
<path fill="none" stroke="black" d="M273.72,-326.58C274.43,-316.96 275.55,-301.88 276.46,-289.54"/>
<polygon fill="black" stroke="black" points="279.92,-290.14 277.17,-279.91 272.94,-289.63 279.92,-290.14"/>
</g>
<!-- 1685793489008 -->
<g id="node12" class="node">
<title>1685793489008</title>
<polygon fill="lightgrey" stroke="black" points="315,-410.75 215,-410.75 215,-390 315,-390 315,-410.75"/>
<text xml:space="preserve" text-anchor="middle" x="265" y="-397.25" font-family="monospace" font-size="10.00">AccumulateGrad</text>
</g>
<!-- 1685793489008&#45;&gt;1685816365152 -->
<g id="edge10" class="edge">
<title>1685793489008&#45;&gt;1685816365152</title>
<path fill="none" stroke="black" d="M266.29,-389.55C267.35,-381.4 268.91,-369.51 270.25,-359.23"/>
<polygon fill="black" stroke="black" points="273.72,-359.72 271.55,-349.35 266.78,-358.81 273.72,-359.72"/>
</g>
<!-- 1685818089120 -->
<g id="node13" class="node">
<title>1685818089120</title>
<polygon fill="lightblue" stroke="black" points="338,-480.25 178,-480.25 178,-446.75 338,-446.75 338,-480.25"/>
<text xml:space="preserve" text-anchor="middle" x="258" y="-466.75" font-family="monospace" font-size="10.00">item_embedding_mf.weight</text>
<text xml:space="preserve" text-anchor="middle" x="258" y="-454" font-family="monospace" font-size="10.00"> (200, 128)</text>
</g>
<!-- 1685818089120&#45;&gt;1685793489008 -->
<g id="edge11" class="edge">
<title>1685818089120&#45;&gt;1685793489008</title>
<path fill="none" stroke="black" d="M259.84,-446.44C260.68,-439.1 261.69,-430.32 262.59,-422.46"/>
<polygon fill="black" stroke="black" points="266.04,-423.05 263.7,-412.72 259.09,-422.26 266.04,-423.05"/>
</g>
<!-- 1685816366496 -->
<g id="node14" class="node">
<title>1685816366496</title>
<polygon fill="lightgrey" stroke="black" points="444,-278.12 350,-278.12 350,-257.38 444,-257.38 444,-278.12"/>
<text xml:space="preserve" text-anchor="middle" x="397" y="-264.62" font-family="monospace" font-size="10.00">ReluBackward0</text>
</g>
<!-- 1685816366496&#45;&gt;1685816370336 -->
<g id="edge12" class="edge">
<title>1685816366496&#45;&gt;1685816370336</title>
<path fill="none" stroke="black" d="M387.36,-256.93C378.47,-247.88 365.07,-234.22 354.33,-223.28"/>
<polygon fill="black" stroke="black" points="356.98,-220.98 347.48,-216.3 351.99,-225.89 356.98,-220.98"/>
</g>
<!-- 1685816363616 -->
<g id="node15" class="node">
<title>1685816363616</title>
<polygon fill="lightgrey" stroke="black" points="468,-347.62 368,-347.62 368,-326.88 468,-326.88 468,-347.62"/>
<text xml:space="preserve" text-anchor="middle" x="418" y="-334.12" font-family="monospace" font-size="10.00">AddmmBackward0</text>
</g>
<!-- 1685816363616&#45;&gt;1685816366496 -->
<g id="edge13" class="edge">
<title>1685816363616&#45;&gt;1685816366496</title>
<path fill="none" stroke="black" d="M414.99,-326.58C411.97,-316.85 407.21,-301.57 403.35,-289.15"/>
<polygon fill="black" stroke="black" points="406.77,-288.36 400.45,-279.85 400.08,-290.44 406.77,-288.36"/>
</g>
<!-- 1685793497840 -->
<g id="node16" class="node">
<title>1685793497840</title>
<polygon fill="lightgrey" stroke="black" points="468,-410.75 368,-410.75 368,-390 468,-390 468,-410.75"/>
<text xml:space="preserve" text-anchor="middle" x="418" y="-397.25" font-family="monospace" font-size="10.00">AccumulateGrad</text>
</g>
<!-- 1685793497840&#45;&gt;1685816363616 -->
<g id="edge14" class="edge">
<title>1685793497840&#45;&gt;1685816363616</title>
<path fill="none" stroke="black" d="M418,-389.55C418,-381.4 418,-369.51 418,-359.23"/>
<polygon fill="black" stroke="black" points="421.5,-359.36 418,-349.36 414.5,-359.36 421.5,-359.36"/>
</g>
<!-- 1685818038768 -->
<g id="node17" class="node">
<title>1685818038768</title>
<polygon fill="lightblue" stroke="black" points="480,-480.25 356,-480.25 356,-446.75 480,-446.75 480,-480.25"/>
<text xml:space="preserve" text-anchor="middle" x="418" y="-466.75" font-family="monospace" font-size="10.00">mlp_layers.15.bias</text>
<text xml:space="preserve" text-anchor="middle" x="418" y="-454" font-family="monospace" font-size="10.00"> (8)</text>
</g>
<!-- 1685818038768&#45;&gt;1685793497840 -->
<g id="edge15" class="edge">
<title>1685818038768&#45;&gt;1685793497840</title>
<path fill="none" stroke="black" d="M418,-446.44C418,-439.1 418,-430.32 418,-422.46"/>
<polygon fill="black" stroke="black" points="421.5,-422.73 418,-412.73 414.5,-422.73 421.5,-422.73"/>
</g>
<!-- 1685816363424 -->
<g id="node18" class="node">
<title>1685816363424</title>
<polygon fill="lightgrey" stroke="black" points="587,-410.75 493,-410.75 493,-390 587,-390 587,-410.75"/>
<text xml:space="preserve" text-anchor="middle" x="540" y="-397.25" font-family="monospace" font-size="10.00">ReluBackward0</text>
</g>
<!-- 1685816363424&#45;&gt;1685816363616 -->
<g id="edge16" class="edge">
<title>1685816363424&#45;&gt;1685816363616</title>
<path fill="none" stroke="black" d="M520.4,-389.55C500.74,-379.71 470.23,-364.42 447.63,-353.09"/>
<polygon fill="black" stroke="black" points="449.41,-350.07 438.91,-348.72 446.28,-356.33 449.41,-350.07"/>
</g>
<!-- 1685816362848 -->
<g id="node19" class="node">
<title>1685816362848</title>
<polygon fill="lightgrey" stroke="black" points="598,-473.88 498,-473.88 498,-453.12 598,-453.12 598,-473.88"/>
<text xml:space="preserve" text-anchor="middle" x="548" y="-460.38" font-family="monospace" font-size="10.00">AddmmBackward0</text>
</g>
<!-- 1685816362848&#45;&gt;1685816363424 -->
<g id="edge17" class="edge">
<title>1685816362848&#45;&gt;1685816363424</title>
<path fill="none" stroke="black" d="M546.71,-452.68C545.65,-444.52 544.09,-432.63 542.75,-422.35"/>
<polygon fill="black" stroke="black" points="546.22,-421.93 541.45,-412.47 539.28,-422.84 546.22,-421.93"/>
</g>
<!-- 1685817099936 -->
<g id="node20" class="node">
<title>1685817099936</title>
<polygon fill="lightgrey" stroke="black" points="423,-543.38 323,-543.38 323,-522.62 423,-522.62 423,-543.38"/>
<text xml:space="preserve" text-anchor="middle" x="373" y="-529.88" font-family="monospace" font-size="10.00">AccumulateGrad</text>
</g>
<!-- 1685817099936&#45;&gt;1685816362848 -->
<g id="edge18" class="edge">
<title>1685817099936&#45;&gt;1685816362848</title>
<path fill="none" stroke="black" d="M398.45,-522.18C428.39,-510.64 478.29,-491.39 512.14,-478.33"/>
<polygon fill="black" stroke="black" points="513.04,-481.74 521.11,-474.87 510.52,-475.2 513.04,-481.74"/>
</g>
<!-- 1685818048288 -->
<g id="node21" class="node">
<title>1685818048288</title>
<polygon fill="lightblue" stroke="black" points="428,-619.25 304,-619.25 304,-585.75 428,-585.75 428,-619.25"/>
<text xml:space="preserve" text-anchor="middle" x="366" y="-605.75" font-family="monospace" font-size="10.00">mlp_layers.12.bias</text>
<text xml:space="preserve" text-anchor="middle" x="366" y="-593" font-family="monospace" font-size="10.00"> (16)</text>
</g>
<!-- 1685818048288&#45;&gt;1685817099936 -->
<g id="edge19" class="edge">
<title>1685818048288&#45;&gt;1685817099936</title>
<path fill="none" stroke="black" d="M367.66,-585.5C368.6,-576.4 369.8,-564.89 370.82,-555.07"/>
<polygon fill="black" stroke="black" points="374.28,-555.64 371.83,-545.33 367.31,-554.91 374.28,-555.64"/>
</g>
<!-- 1685816362272 -->
<g id="node22" class="node">
<title>1685816362272</title>
<polygon fill="lightgrey" stroke="black" points="543,-543.38 449,-543.38 449,-522.62 543,-522.62 543,-543.38"/>
<text xml:space="preserve" text-anchor="middle" x="496" y="-529.88" font-family="monospace" font-size="10.00">ReluBackward0</text>
</g>
<!-- 1685816362272&#45;&gt;1685816362848 -->
<g id="edge20" class="edge">
<title>1685816362272&#45;&gt;1685816362848</title>
<path fill="none" stroke="black" d="M503.45,-522.33C511.33,-512.1 523.94,-495.73 533.74,-483"/>
<polygon fill="black" stroke="black" points="536.31,-485.41 539.64,-475.35 530.76,-481.14 536.31,-485.41"/>
</g>
<!-- 1685816362080 -->
<g id="node23" class="node">
<title>1685816362080</title>
<polygon fill="lightgrey" stroke="black" points="546,-612.88 446,-612.88 446,-592.12 546,-592.12 546,-612.88"/>
<text xml:space="preserve" text-anchor="middle" x="496" y="-599.38" font-family="monospace" font-size="10.00">AddmmBackward0</text>
</g>
<!-- 1685816362080&#45;&gt;1685816362272 -->
<g id="edge21" class="edge">
<title>1685816362080&#45;&gt;1685816362272</title>
<path fill="none" stroke="black" d="M496,-591.83C496,-582.21 496,-567.13 496,-554.79"/>
<polygon fill="black" stroke="black" points="499.5,-555.17 496,-545.17 492.5,-555.17 499.5,-555.17"/>
</g>
<!-- 1685816495648 -->
<g id="node24" class="node">
<title>1685816495648</title>
<polygon fill="lightgrey" stroke="black" points="398,-682.38 298,-682.38 298,-661.62 398,-661.62 398,-682.38"/>
<text xml:space="preserve" text-anchor="middle" x="348" y="-668.88" font-family="monospace" font-size="10.00">AccumulateGrad</text>
</g>
<!-- 1685816495648&#45;&gt;1685816362080 -->
<g id="edge22" class="edge">
<title>1685816495648&#45;&gt;1685816362080</title>
<path fill="none" stroke="black" d="M369.52,-661.18C394.4,-649.84 435.59,-631.05 464.18,-618.01"/>
<polygon fill="black" stroke="black" points="465.43,-621.29 473.08,-613.95 462.53,-614.92 465.43,-621.29"/>
</g>
<!-- 1685818089520 -->
<g id="node25" class="node">
<title>1685818089520</title>
<polygon fill="lightblue" stroke="black" points="401,-758.25 283,-758.25 283,-724.75 401,-724.75 401,-758.25"/>
<text xml:space="preserve" text-anchor="middle" x="342" y="-744.75" font-family="monospace" font-size="10.00">mlp_layers.9.bias</text>
<text xml:space="preserve" text-anchor="middle" x="342" y="-732" font-family="monospace" font-size="10.00"> (32)</text>
</g>
<!-- 1685818089520&#45;&gt;1685816495648 -->
<g id="edge23" class="edge">
<title>1685818089520&#45;&gt;1685816495648</title>
<path fill="none" stroke="black" d="M343.42,-724.5C344.23,-715.4 345.25,-703.89 346.13,-694.07"/>
<polygon fill="black" stroke="black" points="349.59,-694.6 346.99,-684.33 342.62,-693.98 349.59,-694.6"/>
</g>
<!-- 1685816361312 -->
<g id="node26" class="node">
<title>1685816361312</title>
<polygon fill="lightgrey" stroke="black" points="516,-682.38 422,-682.38 422,-661.62 516,-661.62 516,-682.38"/>
<text xml:space="preserve" text-anchor="middle" x="469" y="-668.88" font-family="monospace" font-size="10.00">ReluBackward0</text>
</g>
<!-- 1685816361312&#45;&gt;1685816362080 -->
<g id="edge24" class="edge">
<title>1685816361312&#45;&gt;1685816362080</title>
<path fill="none" stroke="black" d="M472.87,-661.33C476.8,-651.5 483,-636 487.99,-623.52"/>
<polygon fill="black" stroke="black" points="491.11,-625.14 491.58,-614.56 484.61,-622.54 491.11,-625.14"/>
</g>
<!-- 1685816376768 -->
<g id="node27" class="node">
<title>1685816376768</title>
<polygon fill="lightgrey" stroke="black" points="519,-751.88 419,-751.88 419,-731.12 519,-731.12 519,-751.88"/>
<text xml:space="preserve" text-anchor="middle" x="469" y="-738.38" font-family="monospace" font-size="10.00">AddmmBackward0</text>
</g>
<!-- 1685816376768&#45;&gt;1685816361312 -->
<g id="edge25" class="edge">
<title>1685816376768&#45;&gt;1685816361312</title>
<path fill="none" stroke="black" d="M469,-730.83C469,-721.21 469,-706.13 469,-693.79"/>
<polygon fill="black" stroke="black" points="472.5,-694.17 469,-684.17 465.5,-694.17 472.5,-694.17"/>
</g>
<!-- 1685816492336 -->
<g id="node28" class="node">
<title>1685816492336</title>
<polygon fill="lightgrey" stroke="black" points="372,-821.38 272,-821.38 272,-800.62 372,-800.62 372,-821.38"/>
<text xml:space="preserve" text-anchor="middle" x="322" y="-807.88" font-family="monospace" font-size="10.00">AccumulateGrad</text>
</g>
<!-- 1685816492336&#45;&gt;1685816376768 -->
<g id="edge26" class="edge">
<title>1685816492336&#45;&gt;1685816376768</title>
<path fill="none" stroke="black" d="M343.38,-800.18C368.09,-788.84 409,-770.05 437.39,-757.01"/>
<polygon fill="black" stroke="black" points="438.6,-760.31 446.22,-752.96 435.68,-753.95 438.6,-760.31"/>
</g>
<!-- 1685818089440 -->
<g id="node29" class="node">
<title>1685818089440</title>
<polygon fill="lightblue" stroke="black" points="375,-897.25 257,-897.25 257,-863.75 375,-863.75 375,-897.25"/>
<text xml:space="preserve" text-anchor="middle" x="316" y="-883.75" font-family="monospace" font-size="10.00">mlp_layers.6.bias</text>
<text xml:space="preserve" text-anchor="middle" x="316" y="-871" font-family="monospace" font-size="10.00"> (64)</text>
</g>
<!-- 1685818089440&#45;&gt;1685816492336 -->
<g id="edge27" class="edge">
<title>1685818089440&#45;&gt;1685816492336</title>
<path fill="none" stroke="black" d="M317.42,-863.5C318.23,-854.4 319.25,-842.89 320.13,-833.07"/>
<polygon fill="black" stroke="black" points="323.59,-833.6 320.99,-823.33 316.62,-832.98 323.59,-833.6"/>
</g>
<!-- 1685816376384 -->
<g id="node30" class="node">
<title>1685816376384</title>
<polygon fill="lightgrey" stroke="black" points="490,-821.38 396,-821.38 396,-800.62 490,-800.62 490,-821.38"/>
<text xml:space="preserve" text-anchor="middle" x="443" y="-807.88" font-family="monospace" font-size="10.00">ReluBackward0</text>
</g>
<!-- 1685816376384&#45;&gt;1685816376768 -->
<g id="edge28" class="edge">
<title>1685816376384&#45;&gt;1685816376768</title>
<path fill="none" stroke="black" d="M446.73,-800.33C450.51,-790.5 456.48,-775 461.29,-762.52"/>
<polygon fill="black" stroke="black" points="464.41,-764.16 464.74,-753.57 457.88,-761.64 464.41,-764.16"/>
</g>
<!-- 1685816376480 -->
<g id="node31" class="node">
<title>1685816376480</title>
<polygon fill="lightgrey" stroke="black" points="493,-890.88 393,-890.88 393,-870.12 493,-870.12 493,-890.88"/>
<text xml:space="preserve" text-anchor="middle" x="443" y="-877.38" font-family="monospace" font-size="10.00">AddmmBackward0</text>
</g>
<!-- 1685816376480&#45;&gt;1685816376384 -->
<g id="edge29" class="edge">
<title>1685816376480&#45;&gt;1685816376384</title>
<path fill="none" stroke="black" d="M443,-869.83C443,-860.21 443,-845.13 443,-832.79"/>
<polygon fill="black" stroke="black" points="446.5,-833.17 443,-823.17 439.5,-833.17 446.5,-833.17"/>
</g>
<!-- 1685816503232 -->
<g id="node32" class="node">
<title>1685816503232</title>
<polygon fill="lightgrey" stroke="black" points="346,-960.38 246,-960.38 246,-939.62 346,-939.62 346,-960.38"/>
<text xml:space="preserve" text-anchor="middle" x="296" y="-946.88" font-family="monospace" font-size="10.00">AccumulateGrad</text>
</g>
<!-- 1685816503232&#45;&gt;1685816376480 -->
<g id="edge30" class="edge">
<title>1685816503232&#45;&gt;1685816376480</title>
<path fill="none" stroke="black" d="M317.38,-939.18C342.09,-927.84 383,-909.05 411.39,-896.01"/>
<polygon fill="black" stroke="black" points="412.6,-899.31 420.22,-891.96 409.68,-892.95 412.6,-899.31"/>
</g>
<!-- 1685818088800 -->
<g id="node33" class="node">
<title>1685818088800</title>
<polygon fill="lightblue" stroke="black" points="349,-1036.25 231,-1036.25 231,-1002.75 349,-1002.75 349,-1036.25"/>
<text xml:space="preserve" text-anchor="middle" x="290" y="-1022.75" font-family="monospace" font-size="10.00">mlp_layers.3.bias</text>
<text xml:space="preserve" text-anchor="middle" x="290" y="-1010" font-family="monospace" font-size="10.00"> (128)</text>
</g>
<!-- 1685818088800&#45;&gt;1685816503232 -->
<g id="edge31" class="edge">
<title>1685818088800&#45;&gt;1685816503232</title>
<path fill="none" stroke="black" d="M291.42,-1002.5C292.23,-993.4 293.25,-981.89 294.13,-972.07"/>
<polygon fill="black" stroke="black" points="297.59,-972.6 294.99,-962.33 290.62,-971.98 297.59,-972.6"/>
</g>
<!-- 1685816365536 -->
<g id="node34" class="node">
<title>1685816365536</title>
<polygon fill="lightgrey" stroke="black" points="464,-960.38 370,-960.38 370,-939.62 464,-939.62 464,-960.38"/>
<text xml:space="preserve" text-anchor="middle" x="417" y="-946.88" font-family="monospace" font-size="10.00">ReluBackward0</text>
</g>
<!-- 1685816365536&#45;&gt;1685816376480 -->
<g id="edge32" class="edge">
<title>1685816365536&#45;&gt;1685816376480</title>
<path fill="none" stroke="black" d="M420.73,-939.33C424.51,-929.5 430.48,-914 435.29,-901.52"/>
<polygon fill="black" stroke="black" points="438.41,-903.16 438.74,-892.57 431.88,-900.64 438.41,-903.16"/>
</g>
<!-- 1685816372448 -->
<g id="node35" class="node">
<title>1685816372448</title>
<polygon fill="lightgrey" stroke="black" points="467,-1029.88 367,-1029.88 367,-1009.12 467,-1009.12 467,-1029.88"/>
<text xml:space="preserve" text-anchor="middle" x="417" y="-1016.38" font-family="monospace" font-size="10.00">AddmmBackward0</text>
</g>
<!-- 1685816372448&#45;&gt;1685816365536 -->
<g id="edge33" class="edge">
<title>1685816372448&#45;&gt;1685816365536</title>
<path fill="none" stroke="black" d="M417,-1008.83C417,-999.21 417,-984.13 417,-971.79"/>
<polygon fill="black" stroke="black" points="420.5,-972.17 417,-962.17 413.5,-972.17 420.5,-972.17"/>
</g>
<!-- 1685816497664 -->
<g id="node36" class="node">
<title>1685816497664</title>
<polygon fill="lightgrey" stroke="black" points="244,-1099.38 144,-1099.38 144,-1078.62 244,-1078.62 244,-1099.38"/>
<text xml:space="preserve" text-anchor="middle" x="194" y="-1085.88" font-family="monospace" font-size="10.00">AccumulateGrad</text>
</g>
<!-- 1685816497664&#45;&gt;1685816372448 -->
<g id="edge34" class="edge">
<title>1685816497664&#45;&gt;1685816372448</title>
<path fill="none" stroke="black" d="M226.43,-1078.18C265.24,-1066.44 330.38,-1046.72 373.53,-1033.66"/>
<polygon fill="black" stroke="black" points="374.53,-1037.01 383.09,-1030.77 372.5,-1030.31 374.53,-1037.01"/>
</g>
<!-- 1685818088560 -->
<g id="node37" class="node">
<title>1685818088560</title>
<polygon fill="lightblue" stroke="black" points="240,-1175.25 122,-1175.25 122,-1141.75 240,-1141.75 240,-1175.25"/>
<text xml:space="preserve" text-anchor="middle" x="181" y="-1161.75" font-family="monospace" font-size="10.00">mlp_layers.0.bias</text>
<text xml:space="preserve" text-anchor="middle" x="181" y="-1149" font-family="monospace" font-size="10.00"> (256)</text>
</g>
<!-- 1685818088560&#45;&gt;1685816497664 -->
<g id="edge35" class="edge">
<title>1685818088560&#45;&gt;1685816497664</title>
<path fill="none" stroke="black" d="M184.08,-1141.5C185.83,-1132.4 188.05,-1120.89 189.94,-1111.07"/>
<polygon fill="black" stroke="black" points="193.37,-1111.79 191.82,-1101.31 186.49,-1110.47 193.37,-1111.79"/>
</g>
<!-- 1685816366880 -->
<g id="node38" class="node">
<title>1685816366880</title>
<polygon fill="lightgrey" stroke="black" points="435,-1099.38 347,-1099.38 347,-1078.62 435,-1078.62 435,-1099.38"/>
<text xml:space="preserve" text-anchor="middle" x="391" y="-1085.88" font-family="monospace" font-size="10.00">CatBackward0</text>
</g>
<!-- 1685816366880&#45;&gt;1685816372448 -->
<g id="edge36" class="edge">
<title>1685816366880&#45;&gt;1685816372448</title>
<path fill="none" stroke="black" d="M394.73,-1078.33C398.51,-1068.5 404.48,-1053 409.29,-1040.52"/>
<polygon fill="black" stroke="black" points="412.41,-1042.16 412.74,-1031.57 405.88,-1039.64 412.41,-1042.16"/>
</g>
<!-- 1685816229120 -->
<g id="node39" class="node">
<title>1685816229120</title>
<polygon fill="lightgrey" stroke="black" points="382,-1168.88 258,-1168.88 258,-1148.12 382,-1148.12 382,-1168.88"/>
<text xml:space="preserve" text-anchor="middle" x="320" y="-1155.38" font-family="monospace" font-size="10.00">EmbeddingBackward0</text>
</g>
<!-- 1685816229120&#45;&gt;1685816366880 -->
<g id="edge37" class="edge">
<title>1685816229120&#45;&gt;1685816366880</title>
<path fill="none" stroke="black" d="M330.17,-1147.83C341.24,-1137.3 359.17,-1120.26 372.71,-1107.39"/>
<polygon fill="black" stroke="black" points="374.91,-1110.12 379.75,-1100.7 370.09,-1105.05 374.91,-1110.12"/>
</g>
<!-- 1685816617344 -->
<g id="node40" class="node">
<title>1685816617344</title>
<polygon fill="lightgrey" stroke="black" points="360,-1238.38 260,-1238.38 260,-1217.62 360,-1217.62 360,-1238.38"/>
<text xml:space="preserve" text-anchor="middle" x="310" y="-1224.88" font-family="monospace" font-size="10.00">AccumulateGrad</text>
</g>
<!-- 1685816617344&#45;&gt;1685816229120 -->
<g id="edge38" class="edge">
<title>1685816617344&#45;&gt;1685816229120</title>
<path fill="none" stroke="black" d="M311.43,-1217.33C312.86,-1207.71 315.09,-1192.63 316.92,-1180.29"/>
<polygon fill="black" stroke="black" points="320.34,-1181.06 318.35,-1170.65 313.42,-1180.03 320.34,-1181.06"/>
</g>
<!-- 1685818088880 -->
<g id="node41" class="node">
<title>1685818088880</title>
<polygon fill="lightblue" stroke="black" points="372,-1314.25 206,-1314.25 206,-1280.75 372,-1280.75 372,-1314.25"/>
<text xml:space="preserve" text-anchor="middle" x="289" y="-1300.75" font-family="monospace" font-size="10.00">user_embedding_mlp.weight</text>
<text xml:space="preserve" text-anchor="middle" x="289" y="-1288" font-family="monospace" font-size="10.00"> (100, 128)</text>
</g>
<!-- 1685818088880&#45;&gt;1685816617344 -->
<g id="edge39" class="edge">
<title>1685818088880&#45;&gt;1685816617344</title>
<path fill="none" stroke="black" d="M293.98,-1280.5C296.84,-1271.3 300.47,-1259.64 303.55,-1249.74"/>
<polygon fill="black" stroke="black" points="306.87,-1250.86 306.49,-1240.27 300.18,-1248.78 306.87,-1250.86"/>
</g>
<!-- 1685816229312 -->
<g id="node42" class="node">
<title>1685816229312</title>
<polygon fill="lightgrey" stroke="black" points="524,-1168.88 400,-1168.88 400,-1148.12 524,-1148.12 524,-1168.88"/>
<text xml:space="preserve" text-anchor="middle" x="462" y="-1155.38" font-family="monospace" font-size="10.00">EmbeddingBackward0</text>
</g>
<!-- 1685816229312&#45;&gt;1685816366880 -->
<g id="edge40" class="edge">
<title>1685816229312&#45;&gt;1685816366880</title>
<path fill="none" stroke="black" d="M451.83,-1147.83C440.76,-1137.3 422.83,-1120.26 409.29,-1107.39"/>
<polygon fill="black" stroke="black" points="411.91,-1105.05 402.25,-1100.7 407.09,-1110.12 411.91,-1105.05"/>
</g>
<!-- 1685816614848 -->
<g id="node43" class="node">
<title>1685816614848</title>
<polygon fill="lightgrey" stroke="black" points="512,-1238.38 412,-1238.38 412,-1217.62 512,-1217.62 512,-1238.38"/>
<text xml:space="preserve" text-anchor="middle" x="462" y="-1224.88" font-family="monospace" font-size="10.00">AccumulateGrad</text>
</g>
<!-- 1685816614848&#45;&gt;1685816229312 -->
<g id="edge41" class="edge">
<title>1685816614848&#45;&gt;1685816229312</title>
<path fill="none" stroke="black" d="M462,-1217.33C462,-1207.71 462,-1192.63 462,-1180.29"/>
<polygon fill="black" stroke="black" points="465.5,-1180.67 462,-1170.67 458.5,-1180.67 465.5,-1180.67"/>
</g>
<!-- 1685818089280 -->
<g id="node44" class="node">
<title>1685818089280</title>
<polygon fill="lightblue" stroke="black" points="556,-1314.25 390,-1314.25 390,-1280.75 556,-1280.75 556,-1314.25"/>
<text xml:space="preserve" text-anchor="middle" x="473" y="-1300.75" font-family="monospace" font-size="10.00">item_embedding_mlp.weight</text>
<text xml:space="preserve" text-anchor="middle" x="473" y="-1288" font-family="monospace" font-size="10.00"> (200, 128)</text>
</g>
<!-- 1685818089280&#45;&gt;1685816614848 -->
<g id="edge42" class="edge">
<title>1685818089280&#45;&gt;1685816614848</title>
<path fill="none" stroke="black" d="M470.39,-1280.5C468.91,-1271.4 467.03,-1259.89 465.43,-1250.07"/>
<polygon fill="black" stroke="black" points="468.91,-1249.62 463.84,-1240.32 462,-1250.75 468.91,-1249.62"/>
</g>
<!-- 1685816229696 -->
<g id="node45" class="node">
<title>1685816229696</title>
<polygon fill="lightgrey" stroke="black" points="529,-1099.38 453,-1099.38 453,-1078.62 529,-1078.62 529,-1099.38"/>
<text xml:space="preserve" text-anchor="middle" x="491" y="-1085.88" font-family="monospace" font-size="10.00">TBackward0</text>
</g>
<!-- 1685816229696&#45;&gt;1685816372448 -->
<g id="edge43" class="edge">
<title>1685816229696&#45;&gt;1685816372448</title>
<path fill="none" stroke="black" d="M480.4,-1078.33C468.86,-1067.8 450.17,-1050.76 436.07,-1037.89"/>
<polygon fill="black" stroke="black" points="438.45,-1035.33 428.7,-1031.17 433.73,-1040.5 438.45,-1035.33"/>
</g>
<!-- 1685816607264 -->
<g id="node46" class="node">
<title>1685816607264</title>
<polygon fill="lightgrey" stroke="black" points="643,-1168.88 543,-1168.88 543,-1148.12 643,-1148.12 643,-1168.88"/>
<text xml:space="preserve" text-anchor="middle" x="593" y="-1155.38" font-family="monospace" font-size="10.00">AccumulateGrad</text>
</g>
<!-- 1685816607264&#45;&gt;1685816229696 -->
<g id="edge44" class="edge">
<title>1685816607264&#45;&gt;1685816229696</title>
<path fill="none" stroke="black" d="M578.39,-1147.83C561.97,-1136.96 535.05,-1119.15 515.42,-1106.16"/>
<polygon fill="black" stroke="black" points="517.45,-1103.31 507.18,-1100.71 513.59,-1109.15 517.45,-1103.31"/>
</g>
<!-- 1685818088720 -->
<g id="node47" class="node">
<title>1685818088720</title>
<polygon fill="lightblue" stroke="black" points="660,-1244.75 530,-1244.75 530,-1211.25 660,-1211.25 660,-1244.75"/>
<text xml:space="preserve" text-anchor="middle" x="595" y="-1231.25" font-family="monospace" font-size="10.00">mlp_layers.0.weight</text>
<text xml:space="preserve" text-anchor="middle" x="595" y="-1218.5" font-family="monospace" font-size="10.00"> (256, 259)</text>
</g>
<!-- 1685818088720&#45;&gt;1685816607264 -->
<g id="edge45" class="edge">
<title>1685818088720&#45;&gt;1685816607264</title>
<path fill="none" stroke="black" d="M594.53,-1211C594.26,-1201.9 593.92,-1190.39 593.62,-1180.57"/>
<polygon fill="black" stroke="black" points="597.13,-1180.73 593.34,-1170.83 590.13,-1180.93 597.13,-1180.73"/>
</g>
<!-- 1685816375136 -->
<g id="node48" class="node">
<title>1685816375136</title>
<polygon fill="lightgrey" stroke="black" points="558,-960.38 482,-960.38 482,-939.62 558,-939.62 558,-960.38"/>
<text xml:space="preserve" text-anchor="middle" x="520" y="-946.88" font-family="monospace" font-size="10.00">TBackward0</text>
</g>
<!-- 1685816375136&#45;&gt;1685816376480 -->
<g id="edge46" class="edge">
<title>1685816375136&#45;&gt;1685816376480</title>
<path fill="none" stroke="black" d="M508.97,-939.33C496.91,-928.76 477.37,-911.63 462.67,-898.75"/>
<polygon fill="black" stroke="black" points="465.23,-896.33 455.4,-892.37 460.61,-901.59 465.23,-896.33"/>
</g>
<!-- 1685816493728 -->
<g id="node49" class="node">
<title>1685816493728</title>
<polygon fill="lightgrey" stroke="black" points="636,-1029.88 536,-1029.88 536,-1009.12 636,-1009.12 636,-1029.88"/>
<text xml:space="preserve" text-anchor="middle" x="586" y="-1016.38" font-family="monospace" font-size="10.00">AccumulateGrad</text>
</g>
<!-- 1685816493728&#45;&gt;1685816375136 -->
<g id="edge47" class="edge">
<title>1685816493728&#45;&gt;1685816375136</title>
<path fill="none" stroke="black" d="M576.54,-1008.83C566.35,-998.4 549.9,-981.58 537.37,-968.76"/>
<polygon fill="black" stroke="black" points="539.99,-966.44 530.5,-961.74 534.99,-971.33 539.99,-966.44"/>
</g>
<!-- 1685818088640 -->
<g id="node50" class="node">
<title>1685818088640</title>
<polygon fill="lightblue" stroke="black" points="677,-1105.75 547,-1105.75 547,-1072.25 677,-1072.25 677,-1105.75"/>
<text xml:space="preserve" text-anchor="middle" x="612" y="-1092.25" font-family="monospace" font-size="10.00">mlp_layers.3.weight</text>
<text xml:space="preserve" text-anchor="middle" x="612" y="-1079.5" font-family="monospace" font-size="10.00"> (128, 256)</text>
</g>
<!-- 1685818088640&#45;&gt;1685816493728 -->
<g id="edge48" class="edge">
<title>1685818088640&#45;&gt;1685816493728</title>
<path fill="none" stroke="black" d="M605.84,-1072C602.26,-1062.7 597.7,-1050.88 593.86,-1040.91"/>
<polygon fill="black" stroke="black" points="597.19,-1039.81 590.33,-1031.73 590.66,-1042.32 597.19,-1039.81"/>
</g>
<!-- 1685816376576 -->
<g id="node51" class="node">
<title>1685816376576</title>
<polygon fill="lightgrey" stroke="black" points="584,-821.38 508,-821.38 508,-800.62 584,-800.62 584,-821.38"/>
<text xml:space="preserve" text-anchor="middle" x="546" y="-807.88" font-family="monospace" font-size="10.00">TBackward0</text>
</g>
<!-- 1685816376576&#45;&gt;1685816376768 -->
<g id="edge49" class="edge">
<title>1685816376576&#45;&gt;1685816376768</title>
<path fill="none" stroke="black" d="M534.97,-800.33C522.91,-789.76 503.37,-772.63 488.67,-759.75"/>
<polygon fill="black" stroke="black" points="491.23,-757.33 481.4,-753.37 486.61,-762.59 491.23,-757.33"/>
</g>
<!-- 1685816499104 -->
<g id="node52" class="node">
<title>1685816499104</title>
<polygon fill="lightgrey" stroke="black" points="664,-890.88 564,-890.88 564,-870.12 664,-870.12 664,-890.88"/>
<text xml:space="preserve" text-anchor="middle" x="614" y="-877.38" font-family="monospace" font-size="10.00">AccumulateGrad</text>
</g>
<!-- 1685816499104&#45;&gt;1685816376576 -->
<g id="edge50" class="edge">
<title>1685816499104&#45;&gt;1685816376576</title>
<path fill="none" stroke="black" d="M604.26,-869.83C593.75,-859.4 576.81,-842.58 563.89,-829.76"/>
<polygon fill="black" stroke="black" points="566.36,-827.28 556.8,-822.72 561.43,-832.25 566.36,-827.28"/>
</g>
<!-- 1685818088320 -->
<g id="node53" class="node">
<title>1685818088320</title>
<polygon fill="lightblue" stroke="black" points="706,-966.75 576,-966.75 576,-933.25 706,-933.25 706,-966.75"/>
<text xml:space="preserve" text-anchor="middle" x="641" y="-953.25" font-family="monospace" font-size="10.00">mlp_layers.6.weight</text>
<text xml:space="preserve" text-anchor="middle" x="641" y="-940.5" font-family="monospace" font-size="10.00"> (64, 128)</text>
</g>
<!-- 1685818088320&#45;&gt;1685816499104 -->
<g id="edge51" class="edge">
<title>1685818088320&#45;&gt;1685816499104</title>
<path fill="none" stroke="black" d="M634.6,-933C630.88,-923.7 626.15,-911.88 622.17,-901.91"/>
<polygon fill="black" stroke="black" points="625.45,-900.71 618.49,-892.73 618.96,-903.31 625.45,-900.71"/>
</g>
<!-- 1685816361504 -->
<g id="node54" class="node">
<title>1685816361504</title>
<polygon fill="lightgrey" stroke="black" points="610,-682.38 534,-682.38 534,-661.62 610,-661.62 610,-682.38"/>
<text xml:space="preserve" text-anchor="middle" x="572" y="-668.88" font-family="monospace" font-size="10.00">TBackward0</text>
</g>
<!-- 1685816361504&#45;&gt;1685816362080 -->
<g id="edge52" class="edge">
<title>1685816361504&#45;&gt;1685816362080</title>
<path fill="none" stroke="black" d="M561.11,-661.33C549.21,-650.76 529.92,-633.63 515.42,-620.75"/>
<polygon fill="black" stroke="black" points="518.05,-618.4 508.25,-614.38 513.4,-623.64 518.05,-618.4"/>
</g>
<!-- 1685816505056 -->
<g id="node55" class="node">
<title>1685816505056</title>
<polygon fill="lightgrey" stroke="black" points="690,-751.88 590,-751.88 590,-731.12 690,-731.12 690,-751.88"/>
<text xml:space="preserve" text-anchor="middle" x="640" y="-738.38" font-family="monospace" font-size="10.00">AccumulateGrad</text>
</g>
<!-- 1685816505056&#45;&gt;1685816361504 -->
<g id="edge53" class="edge">
<title>1685816505056&#45;&gt;1685816361504</title>
<path fill="none" stroke="black" d="M630.26,-730.83C619.75,-720.4 602.81,-703.58 589.89,-690.76"/>
<polygon fill="black" stroke="black" points="592.36,-688.28 582.8,-683.72 587.43,-693.25 592.36,-688.28"/>
</g>
<!-- 1685818088960 -->
<g id="node56" class="node">
<title>1685818088960</title>
<polygon fill="lightblue" stroke="black" points="732,-827.75 602,-827.75 602,-794.25 732,-794.25 732,-827.75"/>
<text xml:space="preserve" text-anchor="middle" x="667" y="-814.25" font-family="monospace" font-size="10.00">mlp_layers.9.weight</text>
<text xml:space="preserve" text-anchor="middle" x="667" y="-801.5" font-family="monospace" font-size="10.00"> (32, 64)</text>
</g>
<!-- 1685818088960&#45;&gt;1685816505056 -->
<g id="edge54" class="edge">
<title>1685818088960&#45;&gt;1685816505056</title>
<path fill="none" stroke="black" d="M660.6,-794C656.88,-784.7 652.15,-772.88 648.17,-762.91"/>
<polygon fill="black" stroke="black" points="651.45,-761.71 644.49,-753.73 644.96,-764.31 651.45,-761.71"/>
</g>
<!-- 1685816362464 -->
<g id="node57" class="node">
<title>1685816362464</title>
<polygon fill="lightgrey" stroke="black" points="637,-543.38 561,-543.38 561,-522.62 637,-522.62 637,-543.38"/>
<text xml:space="preserve" text-anchor="middle" x="599" y="-529.88" font-family="monospace" font-size="10.00">TBackward0</text>
</g>
<!-- 1685816362464&#45;&gt;1685816362848 -->
<g id="edge55" class="edge">
<title>1685816362464&#45;&gt;1685816362848</title>
<path fill="none" stroke="black" d="M591.69,-522.33C583.97,-512.1 571.59,-495.73 561.98,-483"/>
<polygon fill="black" stroke="black" points="565.03,-481.23 556.21,-475.36 559.44,-485.45 565.03,-481.23"/>
</g>
<!-- 1685816493632 -->
<g id="node58" class="node">
<title>1685816493632</title>
<polygon fill="lightgrey" stroke="black" points="718,-612.88 618,-612.88 618,-592.12 718,-592.12 718,-612.88"/>
<text xml:space="preserve" text-anchor="middle" x="668" y="-599.38" font-family="monospace" font-size="10.00">AccumulateGrad</text>
</g>
<!-- 1685816493632&#45;&gt;1685816362464 -->
<g id="edge56" class="edge">
<title>1685816493632&#45;&gt;1685816362464</title>
<path fill="none" stroke="black" d="M658.11,-591.83C647.35,-581.3 629.93,-564.26 616.78,-551.39"/>
<polygon fill="black" stroke="black" points="619.55,-549.2 609.95,-544.71 614.65,-554.21 619.55,-549.2"/>
</g>
<!-- 1685818048448 -->
<g id="node59" class="node">
<title>1685818048448</title>
<polygon fill="lightblue" stroke="black" points="764,-688.75 628,-688.75 628,-655.25 764,-655.25 764,-688.75"/>
<text xml:space="preserve" text-anchor="middle" x="696" y="-675.25" font-family="monospace" font-size="10.00">mlp_layers.12.weight</text>
<text xml:space="preserve" text-anchor="middle" x="696" y="-662.5" font-family="monospace" font-size="10.00"> (16, 32)</text>
</g>
<!-- 1685818048448&#45;&gt;1685816493632 -->
<g id="edge57" class="edge">
<title>1685818048448&#45;&gt;1685816493632</title>
<path fill="none" stroke="black" d="M689.36,-655C685.51,-645.7 680.6,-633.88 676.47,-623.91"/>
<polygon fill="black" stroke="black" points="679.72,-622.62 672.65,-614.72 673.25,-625.3 679.72,-622.62"/>
</g>
<!-- 1685816363808 -->
<g id="node60" class="node">
<title>1685816363808</title>
<polygon fill="lightgrey" stroke="black" points="696,-410.75 620,-410.75 620,-390 696,-390 696,-410.75"/>
<text xml:space="preserve" text-anchor="middle" x="658" y="-397.25" font-family="monospace" font-size="10.00">TBackward0</text>
</g>
<!-- 1685816363808&#45;&gt;1685816363616 -->
<g id="edge58" class="edge">
<title>1685816363808&#45;&gt;1685816363616</title>
<path fill="none" stroke="black" d="M619.82,-389.98C583.16,-380.92 526.24,-366.74 477,-354 473.24,-353.03 469.35,-352.01 465.45,-350.98"/>
<polygon fill="black" stroke="black" points="466.51,-347.64 455.95,-348.47 464.72,-354.41 466.51,-347.64"/>
</g>
<!-- 1685793327520 -->
<g id="node61" class="node">
<title>1685793327520</title>
<polygon fill="lightgrey" stroke="black" points="744,-473.88 644,-473.88 644,-453.12 744,-453.12 744,-473.88"/>
<text xml:space="preserve" text-anchor="middle" x="694" y="-460.38" font-family="monospace" font-size="10.00">AccumulateGrad</text>
</g>
<!-- 1685793327520&#45;&gt;1685816363808 -->
<g id="edge59" class="edge">
<title>1685793327520&#45;&gt;1685816363808</title>
<path fill="none" stroke="black" d="M688.22,-452.68C683.15,-444.07 675.63,-431.31 669.37,-420.67"/>
<polygon fill="black" stroke="black" points="672.51,-419.11 664.42,-412.27 666.48,-422.67 672.51,-419.11"/>
</g>
<!-- 1685818048368 -->
<g id="node62" class="node">
<title>1685818048368</title>
<polygon fill="lightblue" stroke="black" points="791,-549.75 655,-549.75 655,-516.25 791,-516.25 791,-549.75"/>
<text xml:space="preserve" text-anchor="middle" x="723" y="-536.25" font-family="monospace" font-size="10.00">mlp_layers.15.weight</text>
<text xml:space="preserve" text-anchor="middle" x="723" y="-523.5" font-family="monospace" font-size="10.00"> (8, 16)</text>
</g>
<!-- 1685818048368&#45;&gt;1685793327520 -->
<g id="edge60" class="edge">
<title>1685818048368&#45;&gt;1685793327520</title>
<path fill="none" stroke="black" d="M716.13,-516C712.09,-506.6 706.94,-494.62 702.63,-484.59"/>
<polygon fill="black" stroke="black" points="705.98,-483.52 698.82,-475.71 699.55,-486.28 705.98,-483.52"/>
</g>
<!-- 1685816366688 -->
<g id="node63" class="node">
<title>1685816366688</title>
<polygon fill="lightgrey" stroke="black" points="522,-215 446,-215 446,-194.25 522,-194.25 522,-215"/>
<text xml:space="preserve" text-anchor="middle" x="484" y="-201.5" font-family="monospace" font-size="10.00">TBackward0</text>
</g>
<!-- 1685816366688&#45;&gt;1685816365728 -->
<g id="edge61" class="edge">
<title>1685816366688&#45;&gt;1685816365728</title>
<path fill="none" stroke="black" d="M457.72,-193.84C434.31,-185.12 399.81,-172.27 373.68,-162.54"/>
<polygon fill="black" stroke="black" points="375.06,-159.32 364.47,-159.11 372.62,-165.88 375.06,-159.32"/>
</g>
<!-- 1685819052704 -->
<g id="node64" class="node">
<title>1685819052704</title>
<polygon fill="lightgrey" stroke="black" points="581,-278.12 481,-278.12 481,-257.38 581,-257.38 581,-278.12"/>
<text xml:space="preserve" text-anchor="middle" x="531" y="-264.62" font-family="monospace" font-size="10.00">AccumulateGrad</text>
</g>
<!-- 1685819052704&#45;&gt;1685816366688 -->
<g id="edge62" class="edge">
<title>1685819052704&#45;&gt;1685816366688</title>
<path fill="none" stroke="black" d="M523.45,-256.93C516.69,-248.14 506.61,-235.03 498.33,-224.26"/>
<polygon fill="black" stroke="black" points="501.17,-222.21 492.3,-216.42 495.62,-226.48 501.17,-222.21"/>
</g>
<!-- 1685818043808 -->
<g id="node65" class="node">
<title>1685818043808</title>
<polygon fill="lightblue" stroke="black" points="616,-354 486,-354 486,-320.5 616,-320.5 616,-354"/>
<text xml:space="preserve" text-anchor="middle" x="551" y="-340.5" font-family="monospace" font-size="10.00">output_layer.weight</text>
<text xml:space="preserve" text-anchor="middle" x="551" y="-327.75" font-family="monospace" font-size="10.00"> (1, 136)</text>
</g>
<!-- 1685818043808&#45;&gt;1685819052704 -->
<g id="edge63" class="edge">
<title>1685818043808&#45;&gt;1685819052704</title>
<path fill="none" stroke="black" d="M546.26,-320.25C543.53,-311.05 540.08,-299.39 537.14,-289.49"/>
<polygon fill="black" stroke="black" points="540.54,-288.62 534.34,-280.02 533.83,-290.61 540.54,-288.62"/>
</g>
<!-- 1685818181824&#45;&gt;1685818182144 -->
<g id="edge66" class="edge">
<title>1685818181824&#45;&gt;1685818182144</title>
<path fill="none" stroke="black" stroke-dasharray="1,5" d="M376.68,-68.31C370.59,-60.49 363.1,-50.88 356.28,-42.12"/>
<polygon fill="black" stroke="black" points="359.07,-40.01 350.16,-34.27 353.55,-44.31 359.07,-40.01"/>
</g>
</g>
</svg>
