<?xml version="1.0" encoding="UTF-8" standalone="no"?>
<!DOCTYPE svg PUBLIC "-//W3C//DTD SVG 1.1//EN"
 "http://www.w3.org/Graphics/SVG/1.1/DTD/svg11.dtd">
<!-- Generated by graphviz version 13.1.0 (20250701.0955)
 -->
<!-- Pages: 1 -->
<svg width="787pt" height="905pt"
 viewBox="0.00 0.00 787.00 905.00" xmlns="http://www.w3.org/2000/svg" xmlns:xlink="http://www.w3.org/1999/xlink">
<g id="graph0" class="graph" transform="scale(1 1) rotate(0) translate(4 901.25)">
<polygon fill="white" stroke="none" points="-4,4 -4,-901.25 783,-901.25 783,4 -4,4"/>
<!-- 1690308226624 -->
<g id="node1" class="node">
<title>1690308226624</title>
<polygon fill="#caff70" stroke="black" points="363,-32.75 309,-32.75 309,0 363,0 363,-32.75"/>
<text xml:space="preserve" text-anchor="middle" x="336" y="-7.25" font-family="monospace" font-size="10.00"> ()</text>
</g>
<!-- 1690186646912 -->
<g id="node2" class="node">
<title>1690186646912</title>
<polygon fill="lightgrey" stroke="black" points="341,-95.5 229,-95.5 229,-74.75 341,-74.75 341,-95.5"/>
<text xml:space="preserve" text-anchor="middle" x="285" y="-82" font-family="monospace" font-size="10.00">SqueezeBackward0</text>
</g>
<!-- 1690186646912&#45;&gt;1690308226624 -->
<g id="edge43" class="edge">
<title>1690186646912&#45;&gt;1690308226624</title>
<path fill="none" stroke="black" d="M292.53,-74.28C298.98,-65.83 308.55,-53.3 317.07,-42.15"/>
<polygon fill="black" stroke="black" points="319.68,-44.5 322.97,-34.43 314.12,-40.25 319.68,-44.5"/>
</g>
<!-- 1690186651808 -->
<g id="node3" class="node">
<title>1690186651808</title>
<polygon fill="lightgrey" stroke="black" points="386,-158.25 286,-158.25 286,-137.5 386,-137.5 386,-158.25"/>
<text xml:space="preserve" text-anchor="middle" x="336" y="-144.75" font-family="monospace" font-size="10.00">AddmmBackward0</text>
</g>
<!-- 1690186651808&#45;&gt;1690186646912 -->
<g id="edge1" class="edge">
<title>1690186651808&#45;&gt;1690186646912</title>
<path fill="none" stroke="black" d="M327.81,-137.11C320.4,-128.29 309.31,-115.08 300.27,-104.32"/>
<polygon fill="black" stroke="black" points="303.09,-102.23 293.98,-96.82 297.73,-106.73 303.09,-102.23"/>
</g>
<!-- 1690308226384 -->
<g id="node45" class="node">
<title>1690308226384</title>
<polygon fill="#a2cd5a" stroke="black" points="417,-101.5 359,-101.5 359,-68.75 417,-68.75 417,-101.5"/>
<text xml:space="preserve" text-anchor="middle" x="388" y="-76" font-family="monospace" font-size="10.00"> (1, 1)</text>
</g>
<!-- 1690186651808&#45;&gt;1690308226384 -->
<g id="edge44" class="edge">
<title>1690186651808&#45;&gt;1690308226384</title>
<path fill="none" stroke="black" d="M344.35,-137.11C350.53,-129.9 359.23,-119.74 367.24,-110.38"/>
<polygon fill="black" stroke="black" points="369.77,-112.81 373.61,-102.94 364.45,-108.26 369.77,-112.81"/>
</g>
<!-- 1690186439488 -->
<g id="node4" class="node">
<title>1690186439488</title>
<polygon fill="lightgrey" stroke="black" points="270,-215 170,-215 170,-194.25 270,-194.25 270,-215"/>
<text xml:space="preserve" text-anchor="middle" x="220" y="-201.5" font-family="monospace" font-size="10.00">AccumulateGrad</text>
</g>
<!-- 1690186439488&#45;&gt;1690186651808 -->
<g id="edge2" class="edge">
<title>1690186439488&#45;&gt;1690186651808</title>
<path fill="none" stroke="black" d="M240.74,-193.84C258.64,-185.39 284.74,-173.07 305.1,-163.46"/>
<polygon fill="black" stroke="black" points="306.52,-166.66 314.07,-159.22 303.54,-160.33 306.52,-166.66"/>
</g>
<!-- 1690308196176 -->
<g id="node5" class="node">
<title>1690308196176</title>
<polygon fill="lightblue" stroke="black" points="215,-284.5 97,-284.5 97,-251 215,-251 215,-284.5"/>
<text xml:space="preserve" text-anchor="middle" x="156" y="-271" font-family="monospace" font-size="10.00">output_layer.bias</text>
<text xml:space="preserve" text-anchor="middle" x="156" y="-258.25" font-family="monospace" font-size="10.00"> (1)</text>
</g>
<!-- 1690308196176&#45;&gt;1690186439488 -->
<g id="edge3" class="edge">
<title>1690308196176&#45;&gt;1690186439488</title>
<path fill="none" stroke="black" d="M172.82,-250.69C181.59,-242.31 192.35,-232.03 201.38,-223.41"/>
<polygon fill="black" stroke="black" points="203.79,-225.95 208.6,-216.51 198.95,-220.89 203.79,-225.95"/>
</g>
<!-- 1690186650272 -->
<g id="node6" class="node">
<title>1690186650272</title>
<polygon fill="lightgrey" stroke="black" points="380,-215 292,-215 292,-194.25 380,-194.25 380,-215"/>
<text xml:space="preserve" text-anchor="middle" x="336" y="-201.5" font-family="monospace" font-size="10.00">CatBackward0</text>
</g>
<!-- 1690186650272&#45;&gt;1690186651808 -->
<g id="edge4" class="edge">
<title>1690186650272&#45;&gt;1690186651808</title>
<path fill="none" stroke="black" d="M336,-193.84C336,-187.22 336,-178.22 336,-170.02"/>
<polygon fill="black" stroke="black" points="339.5,-170.09 336,-160.09 332.5,-170.09 339.5,-170.09"/>
</g>
<!-- 1690186649744 -->
<g id="node7" class="node">
<title>1690186649744</title>
<polygon fill="lightgrey" stroke="black" points="321,-278.12 233,-278.12 233,-257.38 321,-257.38 321,-278.12"/>
<text xml:space="preserve" text-anchor="middle" x="277" y="-264.62" font-family="monospace" font-size="10.00">MulBackward0</text>
</g>
<!-- 1690186649744&#45;&gt;1690186650272 -->
<g id="edge5" class="edge">
<title>1690186649744&#45;&gt;1690186650272</title>
<path fill="none" stroke="black" d="M286.48,-256.93C295.22,-247.88 308.4,-234.22 318.96,-223.28"/>
<polygon fill="black" stroke="black" points="321.26,-225.93 325.69,-216.31 316.22,-221.07 321.26,-225.93"/>
</g>
<!-- 1690186653008 -->
<g id="node8" class="node">
<title>1690186653008</title>
<polygon fill="lightgrey" stroke="black" points="161,-347.62 37,-347.62 37,-326.88 161,-326.88 161,-347.62"/>
<text xml:space="preserve" text-anchor="middle" x="99" y="-334.12" font-family="monospace" font-size="10.00">EmbeddingBackward0</text>
</g>
<!-- 1690186653008&#45;&gt;1690186649744 -->
<g id="edge6" class="edge">
<title>1690186653008&#45;&gt;1690186649744</title>
<path fill="none" stroke="black" d="M124.88,-326.43C155.33,-314.89 206.1,-295.64 240.53,-282.58"/>
<polygon fill="black" stroke="black" points="241.56,-285.93 249.67,-279.11 239.08,-279.39 241.56,-285.93"/>
</g>
<!-- 1690186434688 -->
<g id="node9" class="node">
<title>1690186434688</title>
<polygon fill="lightgrey" stroke="black" points="139,-410.75 39,-410.75 39,-390 139,-390 139,-410.75"/>
<text xml:space="preserve" text-anchor="middle" x="89" y="-397.25" font-family="monospace" font-size="10.00">AccumulateGrad</text>
</g>
<!-- 1690186434688&#45;&gt;1690186653008 -->
<g id="edge7" class="edge">
<title>1690186434688&#45;&gt;1690186653008</title>
<path fill="none" stroke="black" d="M90.61,-389.55C91.96,-381.31 93.93,-369.25 95.62,-358.89"/>
<polygon fill="black" stroke="black" points="99.03,-359.77 97.19,-349.34 92.12,-358.64 99.03,-359.77"/>
</g>
<!-- 1690308196336 -->
<g id="node10" class="node">
<title>1690308196336</title>
<polygon fill="lightblue" stroke="black" points="160,-480.25 0,-480.25 0,-446.75 160,-446.75 160,-480.25"/>
<text xml:space="preserve" text-anchor="middle" x="80" y="-466.75" font-family="monospace" font-size="10.00">user_embedding_mf.weight</text>
<text xml:space="preserve" text-anchor="middle" x="80" y="-454" font-family="monospace" font-size="10.00"> (100, 16)</text>
</g>
<!-- 1690308196336&#45;&gt;1690186434688 -->
<g id="edge8" class="edge">
<title>1690308196336&#45;&gt;1690186434688</title>
<path fill="none" stroke="black" d="M82.36,-446.44C83.44,-439.1 84.74,-430.32 85.9,-422.46"/>
<polygon fill="black" stroke="black" points="89.34,-423.12 87.33,-412.71 82.41,-422.1 89.34,-423.12"/>
</g>
<!-- 1690186656128 -->
<g id="node11" class="node">
<title>1690186656128</title>
<polygon fill="lightgrey" stroke="black" points="334,-347.62 210,-347.62 210,-326.88 334,-326.88 334,-347.62"/>
<text xml:space="preserve" text-anchor="middle" x="272" y="-334.12" font-family="monospace" font-size="10.00">EmbeddingBackward0</text>
</g>
<!-- 1690186656128&#45;&gt;1690186649744 -->
<g id="edge9" class="edge">
<title>1690186656128&#45;&gt;1690186649744</title>
<path fill="none" stroke="black" d="M272.72,-326.58C273.43,-316.96 274.55,-301.88 275.46,-289.54"/>
<polygon fill="black" stroke="black" points="278.92,-290.14 276.17,-279.91 271.94,-289.63 278.92,-290.14"/>
</g>
<!-- 1690186432576 -->
<g id="node12" class="node">
<title>1690186432576</title>
<polygon fill="lightgrey" stroke="black" points="315,-410.75 215,-410.75 215,-390 315,-390 315,-410.75"/>
<text xml:space="preserve" text-anchor="middle" x="265" y="-397.25" font-family="monospace" font-size="10.00">AccumulateGrad</text>
</g>
<!-- 1690186432576&#45;&gt;1690186656128 -->
<g id="edge10" class="edge">
<title>1690186432576&#45;&gt;1690186656128</title>
<path fill="none" stroke="black" d="M266.12,-389.55C267.06,-381.4 268.42,-369.51 269.6,-359.23"/>
<polygon fill="black" stroke="black" points="273.07,-359.68 270.73,-349.35 266.11,-358.89 273.07,-359.68"/>
</g>
<!-- 1690308196256 -->
<g id="node13" class="node">
<title>1690308196256</title>
<polygon fill="lightblue" stroke="black" points="338,-480.25 178,-480.25 178,-446.75 338,-446.75 338,-480.25"/>
<text xml:space="preserve" text-anchor="middle" x="258" y="-466.75" font-family="monospace" font-size="10.00">item_embedding_mf.weight</text>
<text xml:space="preserve" text-anchor="middle" x="258" y="-454" font-family="monospace" font-size="10.00"> (200, 16)</text>
</g>
<!-- 1690308196256&#45;&gt;1690186432576 -->
<g id="edge11" class="edge">
<title>1690308196256&#45;&gt;1690186432576</title>
<path fill="none" stroke="black" d="M259.84,-446.44C260.68,-439.1 261.69,-430.32 262.59,-422.46"/>
<polygon fill="black" stroke="black" points="266.04,-423.05 263.7,-412.72 259.09,-422.26 266.04,-423.05"/>
</g>
<!-- 1690186660256 -->
<g id="node14" class="node">
<title>1690186660256</title>
<polygon fill="lightgrey" stroke="black" points="443,-278.12 349,-278.12 349,-257.38 443,-257.38 443,-278.12"/>
<text xml:space="preserve" text-anchor="middle" x="396" y="-264.62" font-family="monospace" font-size="10.00">ReluBackward0</text>
</g>
<!-- 1690186660256&#45;&gt;1690186650272 -->
<g id="edge12" class="edge">
<title>1690186660256&#45;&gt;1690186650272</title>
<path fill="none" stroke="black" d="M386.36,-256.93C377.47,-247.88 364.07,-234.22 353.33,-223.28"/>
<polygon fill="black" stroke="black" points="355.98,-220.98 346.48,-216.3 350.99,-225.89 355.98,-220.98"/>
</g>
<!-- 1690186654688 -->
<g id="node15" class="node">
<title>1690186654688</title>
<polygon fill="lightgrey" stroke="black" points="465,-347.62 365,-347.62 365,-326.88 465,-326.88 465,-347.62"/>
<text xml:space="preserve" text-anchor="middle" x="415" y="-334.12" font-family="monospace" font-size="10.00">AddmmBackward0</text>
</g>
<!-- 1690186654688&#45;&gt;1690186660256 -->
<g id="edge13" class="edge">
<title>1690186654688&#45;&gt;1690186660256</title>
<path fill="none" stroke="black" d="M412.28,-326.58C409.54,-316.85 405.24,-301.57 401.74,-289.15"/>
<polygon fill="black" stroke="black" points="405.21,-288.54 399.13,-279.86 398.47,-290.43 405.21,-288.54"/>
</g>
<!-- 1690186442608 -->
<g id="node16" class="node">
<title>1690186442608</title>
<polygon fill="lightgrey" stroke="black" points="465,-410.75 365,-410.75 365,-390 465,-390 465,-410.75"/>
<text xml:space="preserve" text-anchor="middle" x="415" y="-397.25" font-family="monospace" font-size="10.00">AccumulateGrad</text>
</g>
<!-- 1690186442608&#45;&gt;1690186654688 -->
<g id="edge14" class="edge">
<title>1690186442608&#45;&gt;1690186654688</title>
<path fill="none" stroke="black" d="M415,-389.55C415,-381.4 415,-369.51 415,-359.23"/>
<polygon fill="black" stroke="black" points="418.5,-359.36 415,-349.36 411.5,-359.36 418.5,-359.36"/>
</g>
<!-- 1690308196656 -->
<g id="node17" class="node">
<title>1690308196656</title>
<polygon fill="lightblue" stroke="black" points="474,-480.25 356,-480.25 356,-446.75 474,-446.75 474,-480.25"/>
<text xml:space="preserve" text-anchor="middle" x="415" y="-466.75" font-family="monospace" font-size="10.00">mlp_layers.6.bias</text>
<text xml:space="preserve" text-anchor="middle" x="415" y="-454" font-family="monospace" font-size="10.00"> (8)</text>
</g>
<!-- 1690308196656&#45;&gt;1690186442608 -->
<g id="edge15" class="edge">
<title>1690308196656&#45;&gt;1690186442608</title>
<path fill="none" stroke="black" d="M415,-446.44C415,-439.1 415,-430.32 415,-422.46"/>
<polygon fill="black" stroke="black" points="418.5,-422.73 415,-412.73 411.5,-422.73 418.5,-422.73"/>
</g>
<!-- 1690186651424 -->
<g id="node18" class="node">
<title>1690186651424</title>
<polygon fill="lightgrey" stroke="black" points="583,-410.75 489,-410.75 489,-390 583,-390 583,-410.75"/>
<text xml:space="preserve" text-anchor="middle" x="536" y="-397.25" font-family="monospace" font-size="10.00">ReluBackward0</text>
</g>
<!-- 1690186651424&#45;&gt;1690186654688 -->
<g id="edge16" class="edge">
<title>1690186651424&#45;&gt;1690186654688</title>
<path fill="none" stroke="black" d="M516.56,-389.55C497.07,-379.71 466.81,-364.42 444.38,-353.09"/>
<polygon fill="black" stroke="black" points="446.25,-350.11 435.74,-348.73 443.09,-356.36 446.25,-350.11"/>
</g>
<!-- 1690186645712 -->
<g id="node19" class="node">
<title>1690186645712</title>
<polygon fill="lightgrey" stroke="black" points="592,-473.88 492,-473.88 492,-453.12 592,-453.12 592,-473.88"/>
<text xml:space="preserve" text-anchor="middle" x="542" y="-460.38" font-family="monospace" font-size="10.00">AddmmBackward0</text>
</g>
<!-- 1690186645712&#45;&gt;1690186651424 -->
<g id="edge17" class="edge">
<title>1690186645712&#45;&gt;1690186651424</title>
<path fill="none" stroke="black" d="M541.04,-452.68C540.24,-444.52 539.07,-432.63 538.06,-422.35"/>
<polygon fill="black" stroke="black" points="541.55,-422.09 537.09,-412.48 534.58,-422.77 541.55,-422.09"/>
</g>
<!-- 1690185899728 -->
<g id="node20" class="node">
<title>1690185899728</title>
<polygon fill="lightgrey" stroke="black" points="419,-543.38 319,-543.38 319,-522.62 419,-522.62 419,-543.38"/>
<text xml:space="preserve" text-anchor="middle" x="369" y="-529.88" font-family="monospace" font-size="10.00">AccumulateGrad</text>
</g>
<!-- 1690185899728&#45;&gt;1690186645712 -->
<g id="edge18" class="edge">
<title>1690185899728&#45;&gt;1690186645712</title>
<path fill="none" stroke="black" d="M394.16,-522.18C423.62,-510.69 472.66,-491.55 506.12,-478.5"/>
<polygon fill="black" stroke="black" points="507.36,-481.77 515.4,-474.88 504.82,-475.25 507.36,-481.77"/>
</g>
<!-- 1690308195936 -->
<g id="node21" class="node">
<title>1690308195936</title>
<polygon fill="lightblue" stroke="black" points="422,-619.25 304,-619.25 304,-585.75 422,-585.75 422,-619.25"/>
<text xml:space="preserve" text-anchor="middle" x="363" y="-605.75" font-family="monospace" font-size="10.00">mlp_layers.3.bias</text>
<text xml:space="preserve" text-anchor="middle" x="363" y="-593" font-family="monospace" font-size="10.00"> (16)</text>
</g>
<!-- 1690308195936&#45;&gt;1690185899728 -->
<g id="edge19" class="edge">
<title>1690308195936&#45;&gt;1690185899728</title>
<path fill="none" stroke="black" d="M364.42,-585.5C365.23,-576.4 366.25,-564.89 367.13,-555.07"/>
<polygon fill="black" stroke="black" points="370.59,-555.6 367.99,-545.33 363.62,-554.98 370.59,-555.6"/>
</g>
<!-- 1690186647056 -->
<g id="node22" class="node">
<title>1690186647056</title>
<polygon fill="lightgrey" stroke="black" points="537,-543.38 443,-543.38 443,-522.62 537,-522.62 537,-543.38"/>
<text xml:space="preserve" text-anchor="middle" x="490" y="-529.88" font-family="monospace" font-size="10.00">ReluBackward0</text>
</g>
<!-- 1690186647056&#45;&gt;1690186645712 -->
<g id="edge20" class="edge">
<title>1690186647056&#45;&gt;1690186645712</title>
<path fill="none" stroke="black" d="M497.45,-522.33C505.33,-512.1 517.94,-495.73 527.74,-483"/>
<polygon fill="black" stroke="black" points="530.31,-485.41 533.64,-475.35 524.76,-481.14 530.31,-485.41"/>
</g>
<!-- 1690186652720 -->
<g id="node23" class="node">
<title>1690186652720</title>
<polygon fill="lightgrey" stroke="black" points="540,-612.88 440,-612.88 440,-592.12 540,-592.12 540,-612.88"/>
<text xml:space="preserve" text-anchor="middle" x="490" y="-599.38" font-family="monospace" font-size="10.00">AddmmBackward0</text>
</g>
<!-- 1690186652720&#45;&gt;1690186647056 -->
<g id="edge21" class="edge">
<title>1690186652720&#45;&gt;1690186647056</title>
<path fill="none" stroke="black" d="M490,-591.83C490,-582.21 490,-567.13 490,-554.79"/>
<polygon fill="black" stroke="black" points="493.5,-555.17 490,-545.17 486.5,-555.17 493.5,-555.17"/>
</g>
<!-- 1690185896608 -->
<g id="node24" class="node">
<title>1690185896608</title>
<polygon fill="lightgrey" stroke="black" points="317,-682.38 217,-682.38 217,-661.62 317,-661.62 317,-682.38"/>
<text xml:space="preserve" text-anchor="middle" x="267" y="-668.88" font-family="monospace" font-size="10.00">AccumulateGrad</text>
</g>
<!-- 1690185896608&#45;&gt;1690186652720 -->
<g id="edge22" class="edge">
<title>1690185896608&#45;&gt;1690186652720</title>
<path fill="none" stroke="black" d="M299.43,-661.18C338.24,-649.44 403.38,-629.72 446.53,-616.66"/>
<polygon fill="black" stroke="black" points="447.53,-620.01 456.09,-613.77 445.5,-613.31 447.53,-620.01"/>
</g>
<!-- 1690308195776 -->
<g id="node25" class="node">
<title>1690308195776</title>
<polygon fill="lightblue" stroke="black" points="313,-758.25 195,-758.25 195,-724.75 313,-724.75 313,-758.25"/>
<text xml:space="preserve" text-anchor="middle" x="254" y="-744.75" font-family="monospace" font-size="10.00">mlp_layers.0.bias</text>
<text xml:space="preserve" text-anchor="middle" x="254" y="-732" font-family="monospace" font-size="10.00"> (32)</text>
</g>
<!-- 1690308195776&#45;&gt;1690185896608 -->
<g id="edge23" class="edge">
<title>1690308195776&#45;&gt;1690185896608</title>
<path fill="none" stroke="black" d="M257.08,-724.5C258.83,-715.4 261.05,-703.89 262.94,-694.07"/>
<polygon fill="black" stroke="black" points="266.37,-694.79 264.82,-684.31 259.49,-693.47 266.37,-694.79"/>
</g>
<!-- 1690186646192 -->
<g id="node26" class="node">
<title>1690186646192</title>
<polygon fill="lightgrey" stroke="black" points="508,-682.38 420,-682.38 420,-661.62 508,-661.62 508,-682.38"/>
<text xml:space="preserve" text-anchor="middle" x="464" y="-668.88" font-family="monospace" font-size="10.00">CatBackward0</text>
</g>
<!-- 1690186646192&#45;&gt;1690186652720 -->
<g id="edge24" class="edge">
<title>1690186646192&#45;&gt;1690186652720</title>
<path fill="none" stroke="black" d="M467.73,-661.33C471.51,-651.5 477.48,-636 482.29,-623.52"/>
<polygon fill="black" stroke="black" points="485.41,-625.16 485.74,-614.57 478.88,-622.64 485.41,-625.16"/>
</g>
<!-- 1690186658864 -->
<g id="node27" class="node">
<title>1690186658864</title>
<polygon fill="lightgrey" stroke="black" points="455,-751.88 331,-751.88 331,-731.12 455,-731.12 455,-751.88"/>
<text xml:space="preserve" text-anchor="middle" x="393" y="-738.38" font-family="monospace" font-size="10.00">EmbeddingBackward0</text>
</g>
<!-- 1690186658864&#45;&gt;1690186646192 -->
<g id="edge25" class="edge">
<title>1690186658864&#45;&gt;1690186646192</title>
<path fill="none" stroke="black" d="M403.17,-730.83C414.24,-720.3 432.17,-703.26 445.71,-690.39"/>
<polygon fill="black" stroke="black" points="447.91,-693.12 452.75,-683.7 443.09,-688.05 447.91,-693.12"/>
</g>
<!-- 1690185900928 -->
<g id="node28" class="node">
<title>1690185900928</title>
<polygon fill="lightgrey" stroke="black" points="433,-821.38 333,-821.38 333,-800.62 433,-800.62 433,-821.38"/>
<text xml:space="preserve" text-anchor="middle" x="383" y="-807.88" font-family="monospace" font-size="10.00">AccumulateGrad</text>
</g>
<!-- 1690185900928&#45;&gt;1690186658864 -->
<g id="edge26" class="edge">
<title>1690185900928&#45;&gt;1690186658864</title>
<path fill="none" stroke="black" d="M384.43,-800.33C385.86,-790.71 388.09,-775.63 389.92,-763.29"/>
<polygon fill="black" stroke="black" points="393.34,-764.06 391.35,-753.65 386.42,-763.03 393.34,-764.06"/>
</g>
<!-- 1690308196016 -->
<g id="node29" class="node">
<title>1690308196016</title>
<polygon fill="lightblue" stroke="black" points="445,-897.25 279,-897.25 279,-863.75 445,-863.75 445,-897.25"/>
<text xml:space="preserve" text-anchor="middle" x="362" y="-883.75" font-family="monospace" font-size="10.00">user_embedding_mlp.weight</text>
<text xml:space="preserve" text-anchor="middle" x="362" y="-871" font-family="monospace" font-size="10.00"> (100, 16)</text>
</g>
<!-- 1690308196016&#45;&gt;1690185900928 -->
<g id="edge27" class="edge">
<title>1690308196016&#45;&gt;1690185900928</title>
<path fill="none" stroke="black" d="M366.98,-863.5C369.84,-854.3 373.47,-842.64 376.55,-832.74"/>
<polygon fill="black" stroke="black" points="379.87,-833.86 379.49,-823.27 373.18,-831.78 379.87,-833.86"/>
</g>
<!-- 1690186653824 -->
<g id="node30" class="node">
<title>1690186653824</title>
<polygon fill="lightgrey" stroke="black" points="597,-751.88 473,-751.88 473,-731.12 597,-731.12 597,-751.88"/>
<text xml:space="preserve" text-anchor="middle" x="535" y="-738.38" font-family="monospace" font-size="10.00">EmbeddingBackward0</text>
</g>
<!-- 1690186653824&#45;&gt;1690186646192 -->
<g id="edge28" class="edge">
<title>1690186653824&#45;&gt;1690186646192</title>
<path fill="none" stroke="black" d="M524.83,-730.83C513.76,-720.3 495.83,-703.26 482.29,-690.39"/>
<polygon fill="black" stroke="black" points="484.91,-688.05 475.25,-683.7 480.09,-693.12 484.91,-688.05"/>
</g>
<!-- 1690185902944 -->
<g id="node31" class="node">
<title>1690185902944</title>
<polygon fill="lightgrey" stroke="black" points="585,-821.38 485,-821.38 485,-800.62 585,-800.62 585,-821.38"/>
<text xml:space="preserve" text-anchor="middle" x="535" y="-807.88" font-family="monospace" font-size="10.00">AccumulateGrad</text>
</g>
<!-- 1690185902944&#45;&gt;1690186653824 -->
<g id="edge29" class="edge">
<title>1690185902944&#45;&gt;1690186653824</title>
<path fill="none" stroke="black" d="M535,-800.33C535,-790.71 535,-775.63 535,-763.29"/>
<polygon fill="black" stroke="black" points="538.5,-763.67 535,-753.67 531.5,-763.67 538.5,-763.67"/>
</g>
<!-- 1690308196416 -->
<g id="node32" class="node">
<title>1690308196416</title>
<polygon fill="lightblue" stroke="black" points="629,-897.25 463,-897.25 463,-863.75 629,-863.75 629,-897.25"/>
<text xml:space="preserve" text-anchor="middle" x="546" y="-883.75" font-family="monospace" font-size="10.00">item_embedding_mlp.weight</text>
<text xml:space="preserve" text-anchor="middle" x="546" y="-871" font-family="monospace" font-size="10.00"> (200, 16)</text>
</g>
<!-- 1690308196416&#45;&gt;1690185902944 -->
<g id="edge30" class="edge">
<title>1690308196416&#45;&gt;1690185902944</title>
<path fill="none" stroke="black" d="M543.39,-863.5C541.91,-854.4 540.03,-842.89 538.43,-833.07"/>
<polygon fill="black" stroke="black" points="541.91,-832.62 536.84,-823.32 535,-833.75 541.91,-832.62"/>
</g>
<!-- 1690186657328 -->
<g id="node33" class="node">
<title>1690186657328</title>
<polygon fill="lightgrey" stroke="black" points="602,-682.38 526,-682.38 526,-661.62 602,-661.62 602,-682.38"/>
<text xml:space="preserve" text-anchor="middle" x="564" y="-668.88" font-family="monospace" font-size="10.00">TBackward0</text>
</g>
<!-- 1690186657328&#45;&gt;1690186652720 -->
<g id="edge31" class="edge">
<title>1690186657328&#45;&gt;1690186652720</title>
<path fill="none" stroke="black" d="M553.4,-661.33C541.86,-650.8 523.17,-633.76 509.07,-620.89"/>
<polygon fill="black" stroke="black" points="511.45,-618.33 501.7,-614.17 506.73,-623.5 511.45,-618.33"/>
</g>
<!-- 1690185905872 -->
<g id="node34" class="node">
<title>1690185905872</title>
<polygon fill="lightgrey" stroke="black" points="716,-751.88 616,-751.88 616,-731.12 716,-731.12 716,-751.88"/>
<text xml:space="preserve" text-anchor="middle" x="666" y="-738.38" font-family="monospace" font-size="10.00">AccumulateGrad</text>
</g>
<!-- 1690185905872&#45;&gt;1690186657328 -->
<g id="edge32" class="edge">
<title>1690185905872&#45;&gt;1690186657328</title>
<path fill="none" stroke="black" d="M651.39,-730.83C634.97,-719.96 608.05,-702.15 588.42,-689.16"/>
<polygon fill="black" stroke="black" points="590.45,-686.31 580.18,-683.71 586.59,-692.15 590.45,-686.31"/>
</g>
<!-- 1690308195856 -->
<g id="node35" class="node">
<title>1690308195856</title>
<polygon fill="lightblue" stroke="black" points="733,-827.75 603,-827.75 603,-794.25 733,-794.25 733,-827.75"/>
<text xml:space="preserve" text-anchor="middle" x="668" y="-814.25" font-family="monospace" font-size="10.00">mlp_layers.0.weight</text>
<text xml:space="preserve" text-anchor="middle" x="668" y="-801.5" font-family="monospace" font-size="10.00"> (32, 35)</text>
</g>
<!-- 1690308195856&#45;&gt;1690185905872 -->
<g id="edge33" class="edge">
<title>1690308195856&#45;&gt;1690185905872</title>
<path fill="none" stroke="black" d="M667.53,-794C667.26,-784.9 666.92,-773.39 666.62,-763.57"/>
<polygon fill="black" stroke="black" points="670.13,-763.73 666.34,-753.83 663.13,-763.93 670.13,-763.73"/>
</g>
<!-- 1690186647776 -->
<g id="node36" class="node">
<title>1690186647776</title>
<polygon fill="lightgrey" stroke="black" points="631,-543.38 555,-543.38 555,-522.62 631,-522.62 631,-543.38"/>
<text xml:space="preserve" text-anchor="middle" x="593" y="-529.88" font-family="monospace" font-size="10.00">TBackward0</text>
</g>
<!-- 1690186647776&#45;&gt;1690186645712 -->
<g id="edge34" class="edge">
<title>1690186647776&#45;&gt;1690186645712</title>
<path fill="none" stroke="black" d="M585.69,-522.33C577.97,-512.1 565.59,-495.73 555.98,-483"/>
<polygon fill="black" stroke="black" points="559.03,-481.23 550.21,-475.36 553.44,-485.45 559.03,-481.23"/>
</g>
<!-- 1690185902368 -->
<g id="node37" class="node">
<title>1690185902368</title>
<polygon fill="lightgrey" stroke="black" points="709,-612.88 609,-612.88 609,-592.12 709,-592.12 709,-612.88"/>
<text xml:space="preserve" text-anchor="middle" x="659" y="-599.38" font-family="monospace" font-size="10.00">AccumulateGrad</text>
</g>
<!-- 1690185902368&#45;&gt;1690186647776 -->
<g id="edge35" class="edge">
<title>1690185902368&#45;&gt;1690186647776</title>
<path fill="none" stroke="black" d="M649.54,-591.83C639.35,-581.4 622.9,-564.58 610.37,-551.76"/>
<polygon fill="black" stroke="black" points="612.99,-549.44 603.5,-544.74 607.99,-554.33 612.99,-549.44"/>
</g>
<!-- 1690308195696 -->
<g id="node38" class="node">
<title>1690308195696</title>
<polygon fill="lightblue" stroke="black" points="750,-688.75 620,-688.75 620,-655.25 750,-655.25 750,-688.75"/>
<text xml:space="preserve" text-anchor="middle" x="685" y="-675.25" font-family="monospace" font-size="10.00">mlp_layers.3.weight</text>
<text xml:space="preserve" text-anchor="middle" x="685" y="-662.5" font-family="monospace" font-size="10.00"> (16, 32)</text>
</g>
<!-- 1690308195696&#45;&gt;1690185902368 -->
<g id="edge36" class="edge">
<title>1690308195696&#45;&gt;1690185902368</title>
<path fill="none" stroke="black" d="M678.84,-655C675.26,-645.7 670.7,-633.88 666.86,-623.91"/>
<polygon fill="black" stroke="black" points="670.19,-622.81 663.33,-614.73 663.66,-625.32 670.19,-622.81"/>
</g>
<!-- 1690186651616 -->
<g id="node39" class="node">
<title>1690186651616</title>
<polygon fill="lightgrey" stroke="black" points="690,-410.75 614,-410.75 614,-390 690,-390 690,-410.75"/>
<text xml:space="preserve" text-anchor="middle" x="652" y="-397.25" font-family="monospace" font-size="10.00">TBackward0</text>
</g>
<!-- 1690186651616&#45;&gt;1690186654688 -->
<g id="edge37" class="edge">
<title>1690186651616&#45;&gt;1690186654688</title>
<path fill="none" stroke="black" d="M613.77,-389.76C577.71,-380.66 522.14,-366.56 474,-354 470.24,-353.02 466.36,-352 462.45,-350.97"/>
<polygon fill="black" stroke="black" points="463.52,-347.63 452.95,-348.45 461.72,-354.39 463.52,-347.63"/>
</g>
<!-- 1690185892096 -->
<g id="node40" class="node">
<title>1690185892096</title>
<polygon fill="lightgrey" stroke="black" points="737,-473.88 637,-473.88 637,-453.12 737,-453.12 737,-473.88"/>
<text xml:space="preserve" text-anchor="middle" x="687" y="-460.38" font-family="monospace" font-size="10.00">AccumulateGrad</text>
</g>
<!-- 1690185892096&#45;&gt;1690186651616 -->
<g id="edge38" class="edge">
<title>1690185892096&#45;&gt;1690186651616</title>
<path fill="none" stroke="black" d="M681.38,-452.68C676.45,-444.07 669.14,-431.31 663.05,-420.67"/>
<polygon fill="black" stroke="black" points="666.25,-419.22 658.25,-412.28 660.18,-422.7 666.25,-419.22"/>
</g>
<!-- 1690308196096 -->
<g id="node41" class="node">
<title>1690308196096</title>
<polygon fill="lightblue" stroke="black" points="779,-549.75 649,-549.75 649,-516.25 779,-516.25 779,-549.75"/>
<text xml:space="preserve" text-anchor="middle" x="714" y="-536.25" font-family="monospace" font-size="10.00">mlp_layers.6.weight</text>
<text xml:space="preserve" text-anchor="middle" x="714" y="-523.5" font-family="monospace" font-size="10.00"> (8, 16)</text>
</g>
<!-- 1690308196096&#45;&gt;1690185892096 -->
<g id="edge39" class="edge">
<title>1690308196096&#45;&gt;1690185892096</title>
<path fill="none" stroke="black" d="M707.6,-516C703.88,-506.7 699.15,-494.88 695.17,-484.91"/>
<polygon fill="black" stroke="black" points="698.45,-483.71 691.49,-475.73 691.96,-486.31 698.45,-483.71"/>
</g>
<!-- 1690186652048 -->
<g id="node42" class="node">
<title>1690186652048</title>
<polygon fill="lightgrey" stroke="black" points="521,-215 445,-215 445,-194.25 521,-194.25 521,-215"/>
<text xml:space="preserve" text-anchor="middle" x="483" y="-201.5" font-family="monospace" font-size="10.00">TBackward0</text>
</g>
<!-- 1690186652048&#45;&gt;1690186651808 -->
<g id="edge40" class="edge">
<title>1690186652048&#45;&gt;1690186651808</title>
<path fill="none" stroke="black" d="M456.72,-193.84C433.31,-185.12 398.81,-172.27 372.68,-162.54"/>
<polygon fill="black" stroke="black" points="374.06,-159.32 363.47,-159.11 371.62,-165.88 374.06,-159.32"/>
</g>
<!-- 1690186447504 -->
<g id="node43" class="node">
<title>1690186447504</title>
<polygon fill="lightgrey" stroke="black" points="580,-278.12 480,-278.12 480,-257.38 580,-257.38 580,-278.12"/>
<text xml:space="preserve" text-anchor="middle" x="530" y="-264.62" font-family="monospace" font-size="10.00">AccumulateGrad</text>
</g>
<!-- 1690186447504&#45;&gt;1690186652048 -->
<g id="edge41" class="edge">
<title>1690186447504&#45;&gt;1690186652048</title>
<path fill="none" stroke="black" d="M522.45,-256.93C515.69,-248.14 505.61,-235.03 497.33,-224.26"/>
<polygon fill="black" stroke="black" points="500.17,-222.21 491.3,-216.42 494.62,-226.48 500.17,-222.21"/>
</g>
<!-- 1690308196576 -->
<g id="node44" class="node">
<title>1690308196576</title>
<polygon fill="lightblue" stroke="black" points="613,-354 483,-354 483,-320.5 613,-320.5 613,-354"/>
<text xml:space="preserve" text-anchor="middle" x="548" y="-340.5" font-family="monospace" font-size="10.00">output_layer.weight</text>
<text xml:space="preserve" text-anchor="middle" x="548" y="-327.75" font-family="monospace" font-size="10.00"> (1, 24)</text>
</g>
<!-- 1690308196576&#45;&gt;1690186447504 -->
<g id="edge42" class="edge">
<title>1690308196576&#45;&gt;1690186447504</title>
<path fill="none" stroke="black" d="M543.73,-320.25C541.28,-311.05 538.17,-299.39 535.53,-289.49"/>
<polygon fill="black" stroke="black" points="538.97,-288.79 533.01,-280.03 532.2,-290.6 538.97,-288.79"/>
</g>
<!-- 1690308226384&#45;&gt;1690308226624 -->
<g id="edge45" class="edge">
<title>1690308226384&#45;&gt;1690308226624</title>
<path fill="none" stroke="black" stroke-dasharray="1,5" d="M375.68,-68.31C369.59,-60.49 362.1,-50.88 355.28,-42.12"/>
<polygon fill="black" stroke="black" points="358.07,-40.01 349.16,-34.27 352.55,-44.31 358.07,-40.01"/>
</g>
</g>
</svg>
